<svg width="98" height="98" viewBox="0 0 98 98" fill="none" xmlns="http://www.w3.org/2000/svg">
<g filter="url(#filter0_d_36_473)">
<rect x="17" y="8" width="64" height="64" rx="32" fill="white"/>
<path d="M58.6106 46.6789C59.3745 46.6534 59.9688 46.0009 59.9688 45.2366V30.4409C59.9688 27.3324 57.4488 24.8125 54.3404 24.8126H53.9253C53.9234 24.8126 53.9219 24.811 53.9219 24.8092V24.414C53.9219 23.0808 52.8411 22 51.5078 22H46.4922C45.159 22 44.0781 23.0808 44.0782 24.414V24.8091C44.0782 24.811 44.0766 24.8125 44.0748 24.8125H43.6596C40.5512 24.8125 38.0312 27.3324 38.0312 30.4409V52.3716C38.0312 55.4801 40.5512 58 43.6596 58H54.3438C57.4203 58 59.9278 55.5173 59.9683 52.4502C59.9792 51.6154 59.3224 50.9275 58.4887 50.9706C57.7535 51.0087 57.1676 51.6113 57.1564 52.3533C57.1327 53.9155 55.9028 55.1875 54.3404 55.1875H43.6596C42.1045 55.1875 40.8438 53.9268 40.8438 52.3717V30.4409C40.8438 28.8857 42.1045 27.625 43.6596 27.625H45.481C46.2595 27.625 46.8906 26.9939 46.8906 26.2154V24.8159C46.8906 24.814 46.8921 24.8125 46.8939 24.8125H51.106C51.1079 24.8125 51.1094 24.814 51.1094 24.8159V26.2154C51.1094 26.9939 51.7405 27.625 52.5189 27.625H54.3404C55.8955 27.625 57.1562 28.8857 57.1562 30.4409V45.2734C57.1562 46.0661 57.812 46.7056 58.6106 46.6789Z" fill="#273F7C"/>
<path d="M46.1875 48.7188C46.1864 48.94 46.3783 49.0713 46.6242 49.0703C46.7969 49.0696 46.9793 49.0004 47.0996 48.8805L53.7379 41.286C54.3142 40.6197 53.8489 39.5781 52.9644 39.5781H49.7137C49.7111 39.5781 49.7095 39.5752 49.7109 39.573L52.2778 35.4348C52.2792 35.4326 52.2775 35.4297 52.2749 35.4297H47.2917C47.2905 35.4297 47.2894 35.4303 47.2887 35.4314L44.0494 41.2071C43.52 42.1509 44.2073 43.3047 45.2953 43.3047H48.1155C48.1178 43.3047 48.1194 43.307 48.1186 43.3092L46.2306 48.5423C46.2011 48.6066 46.1878 48.6655 46.1875 48.7188Z" fill="#273F7C"/>
</g>
<defs>
<filter id="filter0_d_36_473" x="0" y="0" width="98" height="98" filterUnits="userSpaceOnUse" color-interpolation-filters="sRGB">
<feFlood flood-opacity="0" result="BackgroundImageFix"/>
<feColorMatrix in="SourceAlpha" type="matrix" values="0 0 0 0 0 0 0 0 0 0 0 0 0 0 0 0 0 0 127 0" result="hardAlpha"/>
<feOffset dy="9"/>
<feGaussianBlur stdDeviation="8.5"/>
<feComposite in2="hardAlpha" operator="out"/>
<feColorMatrix type="matrix" values="0 0 0 0 0.435312 0 0 0 0 0.455044 0 0 0 0 0.525 0 0 0 0.1 0"/>
<feBlend mode="normal" in2="BackgroundImageFix" result="effect1_dropShadow_36_473"/>
<feBlend mode="normal" in="SourceGraphic" in2="effect1_dropShadow_36_473" result="shape"/>
</filter>
</defs>
</svg>
