<svg width="98" height="98" viewBox="0 0 98 98" fill="none" xmlns="http://www.w3.org/2000/svg">
<g filter="url(#filter0_d_36_439)">
<rect x="17" y="8" width="64" height="64" rx="32" fill="white"/>
<g clip-path="url(#clip0_36_439)">
<path d="M65.5458 23.6083C63.4547 21.5173 60.3302 21.8996 58.1618 22.3689C55.3371 22.9804 51.8723 24.3138 47.8604 25.8576C47.4481 26.0163 47.0294 26.1775 46.6042 26.3406C46.5875 26.347 46.5709 26.3537 46.5546 26.3607C46.4035 26.4254 42.8325 27.9585 40.7621 29.2353C34.6402 33.0107 33.3366 38.0495 33.3209 41.6117C33.3132 43.379 33.6164 45.1841 34.2217 46.99C32.1527 50.5129 31.0007 53.8734 31.0007 56.5938C31.0007 57.3704 31.6302 58 32.4069 58C33.1836 58 33.8131 57.3704 33.8131 56.5938C33.8131 54.9058 34.4756 52.3862 36.1173 49.3455C36.7554 49.6936 37.6638 50.1039 38.8145 50.408C39.7125 50.6452 40.8389 50.8337 42.1515 50.8337C43.9208 50.8337 46.0283 50.491 48.3681 49.4634C49.3997 49.0103 50.4089 48.4737 51.3676 47.8684C52.0243 47.4538 52.2206 46.5854 51.806 45.9286C51.3914 45.2718 50.5231 45.0758 49.8662 45.4902C49.0256 46.021 48.141 46.4913 47.237 46.8884C44.6117 48.0414 42.0631 48.3221 39.662 47.7221C38.7661 47.4982 38.0564 47.1866 37.5664 46.9283C38.4972 45.5128 39.6244 44.0155 40.9741 42.4607C44.91 37.9272 52.0559 31.4404 63.8874 26.0018C64.3002 26.6513 64.412 27.6737 63.3822 29.6839C62.8521 30.7185 62.1064 31.8473 61.2126 33.0687C61.1846 33.0797 61.1565 33.09 61.1289 33.1029C59.5129 33.8605 56.3262 34.076 55.2339 34.0951C54.4573 34.108 53.8383 34.748 53.8513 35.5245C53.8641 36.2931 54.4912 36.9072 55.2568 36.9072C55.2647 36.9072 55.2727 36.9072 55.2807 36.907C55.5327 36.9028 56.872 36.871 58.4355 36.6572C58.2121 36.9373 57.9852 37.2211 57.7553 37.5085C57.1543 38.2602 56.5354 39.0351 55.9103 39.8295C53.8426 40.2949 51.7789 40.4843 49.4585 40.4232C49.4459 40.4229 49.4334 40.4227 49.4209 40.4227C48.6614 40.4227 48.036 41.0282 48.0159 41.7919C47.9955 42.5683 48.6082 43.2142 49.3846 43.2347C49.693 43.2427 49.9972 43.2469 50.298 43.2469C52.6821 43.2469 54.848 42.9905 57.0457 42.452C57.0595 42.4486 57.0724 42.4437 57.0859 42.44C57.1128 42.4325 57.1397 42.425 57.1662 42.4159C57.1852 42.4095 57.2035 42.4021 57.222 42.3948C57.2462 42.3854 57.2703 42.3759 57.2942 42.365C57.3136 42.3562 57.3323 42.3465 57.3513 42.3369C57.3731 42.3258 57.3947 42.3145 57.4159 42.3022C57.4353 42.291 57.454 42.279 57.4727 42.2669C57.4923 42.2543 57.5118 42.2416 57.5308 42.2279C57.5499 42.2142 57.5682 42.1997 57.5865 42.1851C57.6039 42.1712 57.6212 42.1575 57.6379 42.1427C57.6568 42.1261 57.6747 42.1087 57.6926 42.0912C57.7075 42.0767 57.7224 42.0623 57.7368 42.047C57.7553 42.0273 57.7725 42.0066 57.7898 41.9858C57.7992 41.9745 57.8094 41.9643 57.8186 41.9526C58.5388 41.0322 59.2571 40.1337 59.9519 39.2648C62.464 36.1228 64.6337 33.4091 65.8852 30.9662C66.6153 29.541 66.9794 28.3003 66.9981 27.1732C67.0214 25.7944 66.5327 24.5951 65.5458 23.6083ZM38.8506 40.617C37.9335 41.6734 37.0854 42.7407 36.3123 43.8062C36.1901 43.0708 36.1302 42.3422 36.1333 41.6241C36.1501 37.7826 37.9168 34.6136 41.3853 32.1902C41.379 32.2059 41.3728 32.221 41.3666 32.2367C41.0781 32.9578 41.4289 33.7761 42.1499 34.0646C42.3213 34.1331 42.4978 34.1655 42.6718 34.1655C43.2298 34.1655 43.7578 33.831 43.9777 33.2813C44.6104 31.7 45.0414 30.9535 45.6898 29.8353C46.6882 29.3678 47.4916 29.0194 47.6379 28.9564C48.055 28.7964 48.4658 28.6383 48.8705 28.4825C53.1306 26.8431 56.8523 25.4111 59.5782 24.9623C49.1383 30.2722 42.6062 36.2909 38.8506 40.617Z" fill="#273F7C"/>
</g>
</g>
<defs>
<filter id="filter0_d_36_439" x="0" y="0" width="98" height="98" filterUnits="userSpaceOnUse" color-interpolation-filters="sRGB">
<feFlood flood-opacity="0" result="BackgroundImageFix"/>
<feColorMatrix in="SourceAlpha" type="matrix" values="0 0 0 0 0 0 0 0 0 0 0 0 0 0 0 0 0 0 127 0" result="hardAlpha"/>
<feOffset dy="9"/>
<feGaussianBlur stdDeviation="8.5"/>
<feComposite in2="hardAlpha" operator="out"/>
<feColorMatrix type="matrix" values="0 0 0 0 0.435312 0 0 0 0 0.455044 0 0 0 0 0.525 0 0 0 0.1 0"/>
<feBlend mode="normal" in2="BackgroundImageFix" result="effect1_dropShadow_36_439"/>
<feBlend mode="normal" in="SourceGraphic" in2="effect1_dropShadow_36_439" result="shape"/>
</filter>
<clipPath id="clip0_36_439">
<rect width="36" height="36" fill="white" transform="translate(31 22)"/>
</clipPath>
</defs>
</svg>
