<svg width="98" height="98" viewBox="0 0 98 98" fill="none" xmlns="http://www.w3.org/2000/svg">
<g filter="url(#filter0_d_36_446)">
<rect x="17" y="8" width="64" height="64" rx="32" fill="white"/>
<g clip-path="url(#clip0_36_446)">
<path d="M42.124 32.3342C41.5831 31.7932 40.6603 31.991 40.3908 32.7095L31.442 56.573C31.125 57.4183 31.9528 58.2485 32.7998 57.9308C33.9983 57.4813 55.7015 49.3426 56.6632 48.982C57.3784 48.7139 57.5823 47.7925 57.0386 47.2489L42.124 32.3342ZM41.7906 34.9837L46.1245 39.3176C46.4243 42.9217 47.7595 46.3864 49.9366 49.2517L45.4251 50.9436C42.0506 47.4333 40.3285 42.5257 40.7871 37.6596L41.7906 34.9837ZM38.9472 53.3728C37.9068 52.1912 37.0415 50.8743 36.3672 49.4461L38.9141 42.6544C39.5466 46.1282 41.1068 49.2358 43.2952 51.7422L38.9472 53.3728ZM35.3837 52.0687C35.825 52.7979 36.315 53.4955 36.8514 54.1587L34.2316 55.1412L35.3837 52.0687ZM52.0095 48.4744C50.4279 46.5501 49.2926 44.2866 48.6835 41.8766L54.389 47.5821L52.0095 48.4744Z" fill="#273F7C"/>
<path d="M55.8778 41.698C56.2896 42.1099 56.9573 42.1099 57.3692 41.698C61.3368 37.7304 65.2002 38.957 65.2388 38.9698C65.7914 39.154 66.3886 38.8554 66.5728 38.3028C66.7571 37.7504 66.4584 37.153 65.9058 36.9688C65.6979 36.8995 60.757 35.3273 55.8778 40.2066C55.4659 40.6183 55.4658 41.2862 55.8778 41.698Z" fill="#273F7C"/>
<path d="M47.6749 33.4948C48.0867 33.9067 48.7544 33.9067 49.1663 33.4948C54.0455 28.6156 52.4733 23.6748 52.4041 23.4668C52.2199 22.9143 51.6225 22.6155 51.0701 22.7998C50.5175 22.984 50.2189 23.5813 50.403 24.1338C50.4159 24.1724 51.6425 28.0358 47.6749 32.0034C47.263 32.4152 47.263 33.083 47.6749 33.4948Z" fill="#273F7C"/>
<path d="M51.4034 35.7321C50.9915 36.144 50.9915 36.8117 51.4034 37.2236C51.8115 37.6317 52.4745 37.6371 52.8886 37.2299C53.4334 36.9584 55.1244 37.9766 56.0643 37.0371C56.9939 36.1074 56.0062 34.4507 56.2529 33.8701C56.8343 33.6228 58.4903 34.611 59.42 33.6814C60.3499 32.7516 59.3621 31.095 59.6088 30.5143C60.191 30.2669 61.8461 31.2553 62.7758 30.3256C63.7057 29.3958 62.7179 27.7392 62.9646 27.1585C63.5434 26.9123 65.2026 27.8985 66.1318 26.9697C67.0712 26.0302 66.0548 24.3361 66.3243 23.7941C66.73 23.3818 66.7278 22.7187 66.3181 22.3089C65.9063 21.897 65.2385 21.897 64.8266 22.3089C63.9954 23.1402 64.158 24.3137 64.3146 25.1527C63.4756 24.9961 62.3021 24.8335 61.4709 25.6646C60.6396 26.4959 60.8023 27.6694 60.9588 28.5084C60.1198 28.3519 58.9463 28.1891 58.1151 29.0205C57.2838 29.8517 57.4465 31.0252 57.6031 31.8642C56.764 31.7076 55.5905 31.5449 54.7593 32.3762C53.9281 33.2074 54.0907 34.381 54.2473 35.22C53.4082 35.0635 52.2345 34.9009 51.4034 35.7321Z" fill="#273F7C"/>
<path d="M57.3692 26.7833C57.7811 26.3714 57.7811 25.7037 57.3692 25.2918C56.9573 24.8799 56.2896 24.8799 55.8777 25.2918C55.4659 25.7037 55.4659 26.3714 55.8777 26.7833C56.2895 27.1951 56.9573 27.1951 57.3692 26.7833Z" fill="#273F7C"/>
<path d="M64.0807 34.5497C64.6632 34.5497 65.1354 34.0775 65.1354 33.4951C65.1354 32.9126 64.6632 32.4404 64.0807 32.4404C63.4983 32.4404 63.0261 32.9126 63.0261 33.4951C63.0261 34.0775 63.4983 34.5497 64.0807 34.5497Z" fill="#273F7C"/>
<path d="M61.8436 43.1895C61.4317 43.6014 61.4317 44.2691 61.8436 44.681C62.2554 45.0928 62.9231 45.0928 63.335 44.681C63.7469 44.2691 63.7469 43.6014 63.335 43.1895C62.9232 42.7776 62.2554 42.7776 61.8436 43.1895Z" fill="#273F7C"/>
<path d="M46.929 28.2747C47.3409 27.8628 47.3409 27.1951 46.929 26.7833C46.5171 26.3714 45.8494 26.3714 45.4376 26.7833C45.0257 27.1951 45.0257 27.8628 45.4376 28.2747C45.8494 28.6866 46.5172 28.6866 46.929 28.2747Z" fill="#273F7C"/>
</g>
</g>
<defs>
<filter id="filter0_d_36_446" x="0" y="0" width="98" height="98" filterUnits="userSpaceOnUse" color-interpolation-filters="sRGB">
<feFlood flood-opacity="0" result="BackgroundImageFix"/>
<feColorMatrix in="SourceAlpha" type="matrix" values="0 0 0 0 0 0 0 0 0 0 0 0 0 0 0 0 0 0 127 0" result="hardAlpha"/>
<feOffset dy="9"/>
<feGaussianBlur stdDeviation="8.5"/>
<feComposite in2="hardAlpha" operator="out"/>
<feColorMatrix type="matrix" values="0 0 0 0 0.435312 0 0 0 0 0.455044 0 0 0 0 0.525 0 0 0 0.1 0"/>
<feBlend mode="normal" in2="BackgroundImageFix" result="effect1_dropShadow_36_446"/>
<feBlend mode="normal" in="SourceGraphic" in2="effect1_dropShadow_36_446" result="shape"/>
</filter>
<clipPath id="clip0_36_446">
<rect width="36" height="36" fill="white" transform="translate(31 22)"/>
</clipPath>
</defs>
</svg>
