<svg width="98" height="98" viewBox="0 0 98 98" fill="none" xmlns="http://www.w3.org/2000/svg">
<g filter="url(#filter0_d_36_482)">
<rect x="17" y="8" width="64" height="64" rx="32" fill="white"/>
<path d="M55.7501 29.5375V27.625C55.7501 26.7299 55.3945 25.8714 54.7616 25.2385C54.1286 24.6056 53.2702 24.25 52.3751 24.25H50.1251C49.23 24.25 48.3715 24.6056 47.7386 25.2385C47.1057 25.8714 46.7501 26.7299 46.7501 27.625V29.5375C43.9523 30.5215 41.5564 32.3995 39.9326 34.8812C39.8513 35.0053 39.7953 35.1442 39.7677 35.29C39.7402 35.4357 39.7416 35.5855 39.7719 35.7307C39.833 36.024 40.0082 36.2809 40.2588 36.445C40.5095 36.6091 40.815 36.6669 41.1083 36.6057C41.4015 36.5446 41.6585 36.3694 41.8226 36.1188C42.9976 34.3122 44.6667 32.8811 46.6315 31.9958C48.5963 31.1104 50.774 30.808 52.9057 31.1246C55.0374 31.4411 57.0333 32.3632 58.6561 33.7813C60.2788 35.1993 61.4601 37.0536 62.0595 39.1237C62.6589 41.1937 62.6511 43.3923 62.037 45.458C61.423 47.5237 60.2285 49.3696 58.5957 50.7761C56.963 52.1826 54.9606 53.0906 52.8267 53.392C50.6928 53.6934 48.5173 53.3755 46.5588 52.4762C46.2873 52.3524 45.9777 52.3415 45.6982 52.446C45.4187 52.5504 45.192 52.7616 45.0682 53.0331C44.9444 53.3046 44.9335 53.6142 45.0379 53.8938C45.1424 54.1733 45.3536 54.3999 45.6251 54.5238C47.2855 55.3047 49.0877 55.7389 50.9216 55.7999C52.7555 55.8609 54.5826 55.5474 56.2912 54.8786C57.9999 54.2098 59.5543 53.1997 60.8594 51.91C62.1646 50.6202 63.1932 49.078 63.8823 47.3774C64.5714 45.6768 64.9066 43.8536 64.8674 42.0191C64.8282 40.1847 64.4155 38.3774 63.6544 36.7078C62.8934 35.0382 61.7999 33.5413 60.4409 32.3084C59.0818 31.0756 57.4857 30.1328 55.7501 29.5375ZM49.0001 28.9637V27.625C49.0001 27.3266 49.1186 27.0405 49.3296 26.8295C49.5406 26.6185 49.8267 26.5 50.1251 26.5H52.3751C52.6735 26.5 52.9596 26.6185 53.1706 26.8295C53.3816 27.0405 53.5001 27.3266 53.5001 27.625V28.9525C52.7571 28.8223 52.0044 28.7545 51.2501 28.75C50.4955 28.7588 49.7429 28.8303 49.0001 28.9637Z" fill="#273F7C"/>
<path d="M57.7525 37.0524C57.5669 36.8206 57.2971 36.6716 57.0021 36.6379C56.707 36.6042 56.4106 36.6885 56.1775 36.8724L53.0163 39.3924C52.4896 39.0534 51.8763 38.8737 51.25 38.8749C50.5825 38.8749 49.93 39.0729 49.375 39.4437C48.8199 39.8146 48.3874 40.3417 48.1319 40.9584C47.8765 41.5751 47.8096 42.2537 47.9399 42.9084C48.0701 43.563 48.3915 44.1644 48.8635 44.6364C49.3355 45.1084 49.9369 45.4299 50.5916 45.5601C51.2463 45.6903 51.9249 45.6235 52.5416 45.368C53.1583 45.1126 53.6854 44.68 54.0562 44.125C54.4271 43.57 54.625 42.9174 54.625 42.2499C54.6235 41.866 54.555 41.4853 54.4225 41.1249L57.5725 38.6049C57.7978 38.4199 57.9425 38.1546 57.9761 37.865C58.0097 37.5754 57.9295 37.2841 57.7525 37.0524ZM51.25 43.3749C51.0275 43.3749 50.81 43.3089 50.625 43.1853C50.44 43.0617 50.2958 42.886 50.2106 42.6804C50.1255 42.4749 50.1032 42.2487 50.1466 42.0305C50.19 41.8122 50.2972 41.6118 50.4545 41.4544C50.6118 41.2971 50.8123 41.19 51.0305 41.1465C51.2488 41.1031 51.475 41.1254 51.6805 41.2106C51.8861 41.2957 52.0618 41.4399 52.1854 41.6249C52.309 41.8099 52.375 42.0274 52.375 42.2499C52.375 42.5483 52.2565 42.8344 52.0455 43.0454C51.8345 43.2564 51.5484 43.3749 51.25 43.3749Z" fill="#273F7C"/>
<path d="M43.375 38.875H36.625C36.3266 38.875 36.0405 38.9935 35.8295 39.2045C35.6185 39.4155 35.5 39.7016 35.5 40C35.5 40.2984 35.6185 40.5845 35.8295 40.7955C36.0405 41.0065 36.3266 41.125 36.625 41.125H43.375C43.6734 41.125 43.9595 41.0065 44.1705 40.7955C44.3815 40.5845 44.5 40.2984 44.5 40C44.5 39.7016 44.3815 39.4155 44.1705 39.2045C43.9595 38.9935 43.6734 38.875 43.375 38.875Z" fill="#273F7C"/>
<path d="M43.375 43.375H34.375C34.0766 43.375 33.7905 43.4935 33.5795 43.7045C33.3685 43.9155 33.25 44.2016 33.25 44.5C33.25 44.7984 33.3685 45.0845 33.5795 45.2955C33.7905 45.5065 34.0766 45.625 34.375 45.625H43.375C43.6734 45.625 43.9595 45.5065 44.1705 45.2955C44.3815 45.0845 44.5 44.7984 44.5 44.5C44.5 44.2016 44.3815 43.9155 44.1705 43.7045C43.9595 43.4935 43.6734 43.375 43.375 43.375Z" fill="#273F7C"/>
<path d="M43.375 47.875H36.625C36.3266 47.875 36.0405 47.9935 35.8295 48.2045C35.6185 48.4155 35.5 48.7016 35.5 49C35.5 49.2984 35.6185 49.5845 35.8295 49.7955C36.0405 50.0065 36.3266 50.125 36.625 50.125H43.375C43.6734 50.125 43.9595 50.0065 44.1705 49.7955C44.3815 49.5845 44.5 49.2984 44.5 49C44.5 48.7016 44.3815 48.4155 44.1705 48.2045C43.9595 47.9935 43.6734 47.875 43.375 47.875Z" fill="#273F7C"/>
</g>
<defs>
<filter id="filter0_d_36_482" x="0" y="0" width="98" height="98" filterUnits="userSpaceOnUse" color-interpolation-filters="sRGB">
<feFlood flood-opacity="0" result="BackgroundImageFix"/>
<feColorMatrix in="SourceAlpha" type="matrix" values="0 0 0 0 0 0 0 0 0 0 0 0 0 0 0 0 0 0 127 0" result="hardAlpha"/>
<feOffset dy="9"/>
<feGaussianBlur stdDeviation="8.5"/>
<feComposite in2="hardAlpha" operator="out"/>
<feColorMatrix type="matrix" values="0 0 0 0 0.435312 0 0 0 0 0.455044 0 0 0 0 0.525 0 0 0 0.1 0"/>
<feBlend mode="normal" in2="BackgroundImageFix" result="effect1_dropShadow_36_482"/>
<feBlend mode="normal" in="SourceGraphic" in2="effect1_dropShadow_36_482" result="shape"/>
</filter>
</defs>
</svg>
