<svg width="22" height="28" viewBox="0 0 22 28" fill="none" xmlns="http://www.w3.org/2000/svg">
<path fill-rule="evenodd" clip-rule="evenodd" d="M10.7716 2.00348C13.0056 2.00348 14.9496 3.74042 15.2546 6.10575H6.28853C6.59353 3.74042 8.53758 2.00348 10.7716 2.00348ZM17.2718 6.16861H17.9364C18.9795 6.16861 19.8475 6.97031 19.9301 8.01015L21.2681 24.845C21.3606 26.0084 20.4414 27.0035 19.2744 27.0035H2.26869C1.09886 27.0035 0.178764 26.0038 0.275548 24.838L1.67314 8.00314C1.75922 6.96629 2.62587 6.16861 3.66629 6.16861H4.2714C4.55936 2.71427 7.35963 0.003479 10.7716 0.003479C14.1836 0.003479 16.9838 2.71427 17.2718 6.16861ZM3.66629 8.16861H17.9364L19.2744 25.0035H2.26869L3.66629 8.16861Z" fill="#000"/>
</svg>
