<svg width="27" height="29" viewBox="0 0 27 29" fill="none" xmlns="http://www.w3.org/2000/svg">
<path fill-rule="evenodd" clip-rule="evenodd" d="M7.99683 0.532959C4.13083 0.532959 0.996826 3.66696 0.996826 7.53296V16.3346C0.996826 20.1095 3.9849 23.1865 7.72484 23.3294L7.73876 27.5387C7.73994 27.8974 7.93323 28.2281 8.24526 28.4051C8.55729 28.5822 8.94026 28.5785 9.24884 28.3955L17.7827 23.3346H19.9977C23.8637 23.3346 26.9977 20.2006 26.9977 16.3346V7.53296C26.9977 3.66697 23.8637 0.532959 19.9977 0.532959H7.99683ZM17.2385 21.3502V21.3346H19.9977C22.7591 21.3346 24.9977 19.096 24.9977 16.3346V7.53296C24.9977 4.77153 22.7591 2.53296 19.9977 2.53296H7.99683C5.2354 2.53296 2.99683 4.77153 2.99683 7.53296V16.3346C2.99683 19.096 5.2354 21.3346 7.99683 21.3346H8.47931V21.3353L9.71824 21.3312L9.73296 25.7831L17.2306 21.3368L17.2385 21.3502Z" fill="#889674"/>
</svg>
