<svg width="98" height="98" viewBox="0 0 98 98" fill="none" xmlns="http://www.w3.org/2000/svg">
<g clip-path="url(#clip0_33_6)">
<circle cx="49.1677" cy="48.6672" r="49" fill="#decdc1"/>
<path fill-rule="evenodd" clip-rule="evenodd" d="M63.4612 41.1524C63.4612 49.3577 57.0312 55.8955 49.2366 55.8955C41.4419 55.8955 35.0119 49.3577 35.0119 41.1524C35.0119 32.9471 41.4419 26.4092 49.2366 26.4092C57.0312 26.4092 63.4612 32.9471 63.4612 41.1524ZM58.3569 57.7209C63.9375 54.4436 67.7012 48.2515 67.7012 41.1524C67.7012 30.6309 59.4342 22.1016 49.2366 22.1016C39.0388 22.1016 30.7719 30.6309 30.7719 41.1524C30.7719 48.2515 34.5354 54.4436 40.1162 57.7209C32.6577 60.2732 26.6934 65.8732 23.9402 73.0126C23.5131 74.1201 24.0506 75.3697 25.1408 75.8037C26.2309 76.2375 27.4609 75.6915 27.888 74.584C31.0252 66.4489 39.3441 60.5215 49.2364 60.5215C59.1288 60.5215 67.4476 66.4489 70.5848 74.584C71.012 75.6915 72.242 76.2375 73.3321 75.8037C74.4222 75.3697 74.9599 74.1201 74.5327 73.0126C71.7794 65.8732 65.8152 60.2734 58.3569 57.7209Z" fill="white"/>
</g>
<defs>
<clipPath id="clip0_33_6">
<rect width="98" height="98" fill="white"/>
</clipPath>
</defs>
</svg>
