<svg width="36" height="25" viewBox="0 0 36 25" fill="none" xmlns="http://www.w3.org/2000/svg">
<path fill-rule="evenodd" clip-rule="evenodd" d="M3.05414 1.55469H32.0541C32.1885 1.55469 32.3187 1.57234 32.4425 1.60546L18.34 13.0073C17.8816 13.3779 17.2266 13.3779 16.7682 13.0073L2.66572 1.60546C2.78961 1.57234 2.91981 1.55469 3.05414 1.55469ZM1.60264 2.67489C1.57099 2.79619 1.55414 2.92347 1.55414 3.05469V21.0547C1.55414 21.3106 1.61822 21.5515 1.73121 21.7623L12.264 11.2945L1.60264 2.67489ZM31.9738 22.5547H3.06185L13.4373 12.2432L15.8252 14.1737C16.8336 14.9891 18.2746 14.9891 19.2831 14.1737L21.7014 12.2186L31.9738 22.5547ZM33.3497 21.8112C33.4796 21.5891 33.5541 21.3306 33.5541 21.0547V3.05469C33.5541 2.92347 33.5373 2.79618 33.5056 2.67488L22.874 11.2705L33.3497 21.8112ZM0.0541382 3.05469C0.0541382 1.39783 1.39728 0.0546875 3.05414 0.0546875H32.0541C33.711 0.0546875 35.0541 1.39783 35.0541 3.05469V21.0547C35.0541 22.7115 33.711 24.0547 32.0541 24.0547H3.05414C1.39728 24.0547 0.0541382 22.7115 0.0541382 21.0547V3.05469Z" fill="#b0907b"/>
</svg>
