<svg width="51" height="51" viewBox="0 0 51 51" fill="none" xmlns="http://www.w3.org/2000/svg">
<path fill-rule="evenodd" clip-rule="evenodd" d="M25.5 50.0938C39.3071 50.0938 50.5 38.9009 50.5 25.0938C50.5 11.2866 39.3071 0.09375 25.5 0.09375C11.6929 0.09375 0.5 11.2866 0.5 25.0938C0.5 38.9009 11.6929 50.0938 25.5 50.0938ZM28.1716 11.9297H31.4513C31.719 11.9302 31.9365 12.0886 31.9365 12.3893V16.1489C31.9365 16.4499 31.7192 16.6942 31.4513 16.6942L29.3713 16.695C27.9373 16.695 27.675 17.3226 27.675 18.559V21.1313H31.3062C31.4349 21.1313 31.5588 21.1889 31.6497 21.2913C31.7406 21.3937 31.7919 21.5322 31.7919 21.6769V24.8548C31.7919 25.1561 31.5743 25.432 31.3062 25.432H27.675V37.7125C27.675 38.0135 27.4578 38.2578 27.1895 38.2578H23.139C22.8707 38.2578 22.6534 38.0139 22.6534 37.7125V25.432H19.5475C19.2794 25.432 19.0635 25.1561 19.0635 24.8548V21.6769C19.0635 21.3756 19.2808 21.1313 19.549 21.1313H22.6534V18.0969C22.6534 14.0988 24.7028 11.9297 28.1716 11.9297Z" fill="#a5816b"/>
</svg>
