<svg width="27" height="26" viewBox="0 0 27 26" fill="none" xmlns="http://www.w3.org/2000/svg">
<path d="M24.8192 2.98657C23.4054 1.47559 21.5336 0.649746 19.5359 0.649746C17.5383 0.649746 15.6608 1.4817 14.247 2.99269L13.5086 3.78182L12.7588 2.98045C11.345 1.46947 9.46177 0.631393 7.46411 0.631393C5.47217 0.631393 3.59471 1.46335 2.18662 2.96822C0.772797 4.4792 -0.0056621 6.48569 6.18604e-05 8.62064C6.18604e-05 10.7556 0.784245 12.756 2.19806 14.2669L12.9477 25.7553C13.0965 25.9144 13.2968 26 13.4914 26C13.6861 26 13.8864 25.9205 14.0352 25.7614L24.8077 14.2914C26.2215 12.7804 27 10.7739 27 8.63899C27.0057 6.50404 26.233 4.49755 24.8192 2.98657Z" fill="#a5816b"/>
</svg>
