<svg width="16" height="16" viewBox="0 0 16 16" fill="none" xmlns="http://www.w3.org/2000/svg">
<path d="M7.99967 1.33301C4.32367 1.33301 1.33301 4.32367 1.33301 7.99967C1.33301 11.6757 4.32367 14.6663 7.99967 14.6663C11.6757 14.6663 14.6663 11.6757 14.6663 7.99967C14.6663 4.32367 11.6757 1.33301 7.99967 1.33301ZM8.66634 11.9997H7.33301V10.6663H8.66634V11.9997ZM9.31701 8.74301C9.18634 8.84834 9.06034 8.94901 8.96034 9.04901C8.68834 9.32034 8.66701 9.56701 8.66634 9.57767V9.66634H7.33301V9.55501C7.33301 9.47634 7.35234 8.77034 8.01701 8.10567C8.14701 7.97568 8.30834 7.84368 8.47767 7.70634C8.96701 7.30967 9.28834 7.02034 9.28834 6.62167C9.28059 6.28489 9.14134 5.96451 8.90038 5.72909C8.65942 5.49367 8.33589 5.3619 7.99902 5.36199C7.66214 5.36208 7.33868 5.49401 7.09784 5.72955C6.857 5.9651 6.71791 6.28555 6.71034 6.62234H5.37701C5.37701 5.17634 6.55367 3.99967 7.99967 3.99967C9.44567 3.99967 10.6223 5.17634 10.6223 6.62234C10.6223 7.68701 9.83634 8.32234 9.31701 8.74301Z" fill="#D9D9D9"/>
</svg>
