<svg width="16" height="16" viewBox="0 0 16 16" fill="none" xmlns="http://www.w3.org/2000/svg">
<g opacity="0.6">
<path d="M8.00012 12.4999C7.61549 12.4991 7.23174 12.4633 6.85362 12.3929C6.73632 12.3741 6.62953 12.3142 6.55239 12.2239C6.47525 12.1335 6.43279 12.0187 6.43262 11.8999C6.43387 11.8266 6.45095 11.7545 6.48268 11.6885C6.51442 11.6225 6.56007 11.5641 6.6165 11.5173C6.67292 11.4706 6.73879 11.4366 6.80958 11.4177C6.88037 11.3988 6.95441 11.3955 7.02662 11.4079C7.34762 11.4683 7.67348 11.4991 8.00012 11.4999C10.9621 11.4999 13.5346 8.9064 14.3436 7.9999C13.8045 7.39648 13.2121 6.84291 12.5736 6.3459C12.5217 6.30569 12.4782 6.25563 12.4456 6.1986C12.413 6.14157 12.3919 6.07868 12.3837 6.01351C12.3669 5.88191 12.4031 5.74905 12.4844 5.64415C12.5656 5.53926 12.6852 5.47093 12.8168 5.45419C12.8819 5.4459 12.9481 5.45053 13.0115 5.46781C13.0748 5.48509 13.1342 5.51469 13.1861 5.5549C14.0002 6.1821 14.7408 6.89914 15.3941 7.6924C15.463 7.78039 15.5004 7.88891 15.5004 8.00065C15.5004 8.1124 15.463 8.22092 15.3941 8.3089C15.2596 8.4794 12.0621 12.4999 8.00012 12.4999Z" fill="#1F1E21"/>
<path d="M13.3533 2.64639C13.2596 2.55266 13.1324 2.5 12.9998 2.5C12.8672 2.5 12.7401 2.55266 12.6463 2.64639L11.0563 4.23639C10.4543 3.94631 9.8174 3.73522 9.16132 3.60839C8.77835 3.53638 8.38951 3.50006 7.99982 3.49989C3.93782 3.49989 0.740323 7.52039 0.606323 7.69139C0.537432 7.77938 0.5 7.8879 0.5 7.99964C0.5 8.11139 0.537432 8.21991 0.606323 8.30789C1.25895 9.10048 1.99897 9.81685 2.81232 10.4434C3.19708 10.7449 3.60018 11.0223 4.01932 11.2739L2.64632 12.6464C2.59857 12.6925 2.56048 12.7477 2.53427 12.8087C2.50807 12.8697 2.49427 12.9353 2.4937 13.0017C2.49312 13.0681 2.50577 13.1339 2.53091 13.1954C2.55605 13.2568 2.59318 13.3126 2.64013 13.3596C2.68707 13.4065 2.7429 13.4437 2.80435 13.4688C2.86579 13.4939 2.93163 13.5066 2.99802 13.506C3.06441 13.5054 3.13002 13.4916 3.19102 13.4654C3.25203 13.4392 3.3072 13.4011 3.35332 13.3534L13.3533 3.35339C13.4471 3.25963 13.4997 3.13248 13.4997 2.99989C13.4997 2.86731 13.4471 2.74016 13.3533 2.64639ZM3.42632 9.65439C2.78778 9.15723 2.19538 8.60349 1.65632 7.99989C2.46532 7.09389 5.03782 4.49989 7.99982 4.49989C8.3288 4.50016 8.65704 4.53095 8.98032 4.59189C9.43295 4.67801 9.87511 4.8121 10.2993 4.99189L9.37832 5.91289C8.89761 5.59526 8.32193 5.45342 7.74867 5.51137C7.17542 5.56933 6.63978 5.82351 6.23236 6.23093C5.82494 6.63835 5.57075 7.17399 5.5128 7.74724C5.45485 8.3205 5.59669 8.89618 5.91432 9.37689L4.74982 10.5434C4.28675 10.2811 3.84431 9.98386 3.42632 9.65439ZM6.64982 8.64189C6.55238 8.44182 6.50112 8.22242 6.49982 7.99989C6.49992 7.60323 6.65661 7.22264 6.93582 6.94089C7.15842 6.72921 7.43925 6.58895 7.7422 6.53816C8.04515 6.48738 8.35636 6.52838 8.63582 6.65589L6.64982 8.64189Z" fill="#1F1E21"/>
</g>
</svg>
