<svg width="24" height="22" viewBox="0 0 24 22" fill="none" xmlns="http://www.w3.org/2000/svg">
<path fill-rule="evenodd" clip-rule="evenodd" d="M11.7459 0.669672C11.9326 0.508569 12.2088 0.507637 12.3966 0.667476L14.7324 2.65574V1.60256C14.7324 1.32642 14.9563 1.10256 15.2324 1.10256H18.6035C18.8796 1.10256 19.1035 1.32642 19.1035 1.60256V6.52995L23.3268 10.2216C23.4529 10.3318 23.5154 10.4978 23.4934 10.6638C23.4714 10.8298 23.3677 10.9738 23.2172 11.0473L20.5951 12.3282V21.0342V21.5342H20.0951H3.97071H3.47071V21.0342V12.3284L0.790279 11.0493C0.637898 10.9766 0.532509 10.8319 0.510061 10.6645C0.487613 10.4972 0.551138 10.3298 0.678968 10.2195L11.7459 0.669672ZM19.5873 11.7076L19.5951 11.7038V11.6977H19.6075L22.102 10.4791L18.2744 7.13344C18.1658 7.03849 18.1035 6.90125 18.1035 6.75698V2.10256H15.7324V3.73796C15.7324 3.93291 15.6191 4.11009 15.4421 4.19185C15.2651 4.27362 15.0568 4.24507 14.9083 4.1187L12.0747 1.70672L1.91183 10.4765L4.47391 11.6991L4.47071 11.7058V20.5342H19.5951V11.7235L19.5873 11.7076ZM10.5013 11.5926H13.5099V14.4286H10.5013V11.5926ZM9.50134 10.5926H10.5013H13.5099H14.5099V11.5926V14.4286V15.4286H13.5099H10.5013H9.50134V14.4286V11.5926V10.5926Z" fill="#b0907b"/>
</svg>
