<svg width="51" height="51" viewBox="0 0 51 51" fill="none" xmlns="http://www.w3.org/2000/svg">
<path fill-rule="evenodd" clip-rule="evenodd" d="M25.5 50.0938C39.3071 50.0938 50.5 38.9009 50.5 25.0938C50.5 11.2866 39.3071 0.09375 25.5 0.09375C11.6929 0.09375 0.5 11.2866 0.5 25.0938C0.5 38.9009 11.6929 50.0938 25.5 50.0938ZM19.3773 16.9711H31.6226C32.7272 16.9711 33.6226 17.8665 33.6226 18.9711V31.2164C33.6226 32.3209 32.7272 33.2164 31.6226 33.2164H19.3773C18.2727 33.2164 17.3773 32.3209 17.3773 31.2164V18.9711C17.3773 17.8665 18.2727 16.9711 19.3773 16.9711ZM15.3773 18.9711C15.3773 16.7619 17.1682 14.9711 19.3773 14.9711H31.6226C33.8317 14.9711 35.6226 16.7619 35.6226 18.9711V31.2164C35.6226 33.4255 33.8317 35.2164 31.6226 35.2164H19.3773C17.1682 35.2164 15.3773 33.4255 15.3773 31.2164V18.9711ZM29.5002 25.0937C29.5002 27.303 27.7092 29.0939 25.5 29.0939C23.2907 29.0939 21.4998 27.303 21.4998 25.0937C21.4998 22.8845 23.2907 21.0935 25.5 21.0935C27.7092 21.0935 29.5002 22.8845 29.5002 25.0937ZM31.0002 25.0937C31.0002 28.1314 28.5376 30.5939 25.5 30.5939C22.4623 30.5939 19.9998 28.1314 19.9998 25.0937C19.9998 22.056 22.4623 19.5935 25.5 19.5935C28.5376 19.5935 31.0002 22.056 31.0002 25.0937ZM32.9311 19.5935C32.9311 20.3206 32.3416 20.9101 31.6145 20.9101C30.8874 20.9101 30.298 20.3206 30.298 19.5935C30.298 18.8664 30.8874 18.277 31.6145 18.277C32.3416 18.277 32.9311 18.8664 32.9311 19.5935Z" fill="#a5816b"/>
</svg>
