<svg width="51" height="51" viewBox="0 0 51 51" fill="none" xmlns="http://www.w3.org/2000/svg">
<path fill-rule="evenodd" clip-rule="evenodd" d="M25.4017 50.2567C39.2089 50.2567 50.4017 39.0638 50.4017 25.2567C50.4017 11.4495 39.2089 0.256653 25.4017 0.256653C11.5946 0.256653 0.401733 11.4495 0.401733 25.2567C0.401733 39.0638 11.5946 50.2567 25.4017 50.2567ZM16.0026 14.4402C16.327 13.775 17.0933 13.1872 17.8096 13.0539C19.4302 12.7524 20.884 13.9243 20.884 15.5321C20.884 17.8375 18.0493 18.927 16.4419 17.2395C16.1106 16.8917 15.9149 16.5104 15.7982 15.9859C15.6868 15.4846 15.7587 14.9402 16.0026 14.4402ZM30.1086 19.943C30.2532 19.8944 30.5725 19.8125 30.8182 19.761C31.3802 19.6434 32.4373 19.6323 33.147 19.7366C35.3949 20.0673 36.6381 21.327 37.0693 23.7115C37.2501 24.7111 37.2823 25.6432 37.2828 29.8782L37.2834 33.968H35.0496H32.8157L32.8156 30.2372C32.8156 26.5043 32.785 25.6758 32.6257 25.0746C32.4348 24.3541 31.9987 23.8248 31.42 23.6111C30.8143 23.3876 29.8525 23.4208 29.2544 23.6862C28.6704 23.9451 28.2058 24.5397 28.0123 25.2756C27.8463 25.9069 27.823 26.5179 27.8226 30.2628L27.8223 34.0192H25.5883H23.3544V26.993V19.9669L25.4963 19.9802L27.6382 19.9937L27.6526 20.9613L27.6669 21.929L27.8727 21.6183C28.3499 20.8981 29.2306 20.2382 30.1086 19.943ZM16.1008 34.0192V26.9936V19.968H18.3347H20.5686V26.9936V34.0192H18.3347H16.1008Z" fill="#a5816b"/>
</svg>
