<svg width="28" height="34" viewBox="0 0 28 34" fill="none" xmlns="http://www.w3.org/2000/svg">
<path d="M19.768 13.5547C19.768 16.7158 17.1476 19.3047 13.8825 19.3047C10.6174 19.3047 7.99707 16.7158 7.99707 13.5547C7.99707 10.3936 10.6174 7.80469 13.8825 7.80469C17.1476 7.80469 19.768 10.3936 19.768 13.5547Z" stroke="#9CA394" stroke-width="1.5" stroke-linejoin="round"/>
<path d="M26.6325 13.7709C26.6325 16.7548 25.1259 20.0943 22.7318 23.4331C20.3498 26.7548 17.1538 29.9866 13.9232 32.7368C13.8365 32.8106 13.7103 32.8103 13.6244 32.737C10.4033 29.9894 7.2626 26.7593 4.93366 23.4392C2.59376 20.1036 1.13251 16.7613 1.13251 13.7709C1.13251 7.48063 6.63603 0.75 13.7734 0.75C17.3371 0.75 20.5505 2.41914 22.8852 4.90777C25.2248 7.40162 26.6325 10.6667 26.6325 13.7709Z" stroke="#b0907b" stroke-width="1.5" stroke-linejoin="round"/>
</svg>
