<svg width="104" height="84" viewBox="0 0 416 336" fill="none" xmlns="http://www.w3.org/2000/svg">
<g clip-path="url(#clip0_704_4313)">
<mask id="mask0_704_4313" style="mask-type:luminance" maskUnits="userSpaceOnUse" x="-68" y="-64" width="567" height="567">
<path d="M498.92 -64H-68V502.92H498.92V-64Z" fill="white"/>
</mask>
<g mask="url(#mask0_704_4313)">
<path d="M72.9601 170.322C72.9601 165.362 73.2001 149.802 74.1601 142.962C74.6401 138.962 76.7601 124.802 92.0801 124.802C101.52 124.802 109.32 131.162 114.24 139.202C120.6 150.042 121.08 161.842 121.08 171.522C121.08 206.922 103.84 217.282 92.3201 217.282C76.7601 217.282 74.4001 201.962 73.9201 198.162C72.9601 192.042 72.9601 178.802 72.9601 170.322ZM102.2 57.3221H121.76V141.522C117.76 133.962 109.72 119.602 90.8401 119.602C71.9601 119.602 49.5601 137.042 49.5601 171.282C49.5601 205.522 71.9601 222.242 91.3201 222.242C110.68 222.242 117.96 207.162 121.76 198.642V219.402H158.32V214.922H141.08V52.8821H102.16V57.3621L102.2 57.3221Z" fill="#231F20"/>
<path d="M157.2 75.6834C169.44 64.2834 178.24 52.4834 178.24 38.2834C178.24 23.2434 168.36 15.5234 159.56 15.5234C151.4 15.5234 145.36 21.3234 145.36 29.4834C145.36 35.9234 149.24 41.9634 155.88 41.9634C158.44 41.9634 166.2 41.1234 165.56 28.2034C172.64 32.2834 172.64 39.6034 172.64 41.7234C172.64 55.0434 158.48 68.8034 154.16 72.8834L157.16 75.6834H157.2Z" fill="#231F20"/>
<path d="M252.64 67.9222C292.36 67.9222 324.56 98.6422 324.56 136.562C324.56 174.482 292.36 205.202 252.64 205.202C212.92 205.202 180.72 174.482 180.72 136.562C180.72 98.6422 212.92 67.9222 252.64 67.9222ZM369.56 15.4422L354.52 15.1622L301.8 14.2422L301.52 29.2422L345.48 30.0022L305.36 70.1222C290.72 59.5222 272.48 53.2022 252.68 53.2022C204.48 53.2022 165.4 90.4822 165.4 136.482C165.4 182.482 204.48 219.762 252.68 219.762C300.88 219.762 339.96 182.482 339.96 136.482C339.96 114.642 331.16 94.8022 316.76 79.9622L354.08 42.6422L353.4 81.1622L368.44 81.4422L369.6 15.4022L369.56 15.4422Z" fill="#231F20"/>
<path d="M314.2 264.442C314.44 271.042 314.44 277.402 314.44 284.042C314.44 310.442 313.72 317.522 306.88 324.122C303.6 326.962 297.92 330.042 289.64 330.042C283.52 330.042 277.16 328.402 272.4 324.602C263.68 317.762 263.2 307.602 263.2 288.762C263.2 258.082 263.2 250.082 272.4 242.762C278.76 237.562 286.32 237.322 289.16 237.322C313 237.322 313.68 255.962 314.16 264.442M338 283.562C338 253.842 315.36 232.362 289.4 232.362C263.44 232.362 240.12 254.762 240.12 283.802C240.12 312.842 263.24 335.002 289.4 335.002C315.56 335.002 338 313.522 338 283.562ZM65.7601 239.682V327.682H47.6001V332.162H101.4V327.682H85.1201V278.362C85.6001 264.442 86.2801 255.242 91.9601 248.162C95.9601 242.962 103.04 238.962 111.08 238.962C118.64 238.962 122.88 243.202 124.52 246.042C126.88 250.042 126.88 255.962 126.88 263.962V327.642H110.12V332.122H162.48V327.642H147.16V278.322C147.4 264.162 147.64 255.682 154 247.642C156.84 244.122 162.96 238.682 172.88 238.682C179.96 238.682 185.36 241.282 187.76 247.162C188.92 250.242 188.92 253.762 188.92 262.042V327.642H172.64V332.122H225.24V327.642H208.24V260.162C208.24 253.802 207.28 246.722 202.8 240.802C200.2 237.482 193.6 232.322 180.16 232.322C161.52 232.322 151.84 240.562 145.48 247.162C144.52 245.042 143.12 241.482 138.64 237.962C133.44 233.962 125.68 232.282 118.36 232.282C101.36 232.282 90.7601 240.522 84.8801 245.962V235.122H47.6001V239.602H65.7601V239.682Z" fill="#231F20"/>
</g>
</g>
<defs>
<clipPath id="clip0_704_4313">
<rect width="336" height="332" fill="white" transform="translate(40 4)"/>
</clipPath>
</defs>
</svg>
