<svg width="57" height="35" viewBox="0 0 57 35" fill="none" xmlns="http://www.w3.org/2000/svg">
<circle cx="17.122" cy="17.7194" r="17.0409" fill="#a5816b"/>
<path d="M39.7694 34.7571C49.1653 34.7571 56.7823 27.1284 56.7823 17.7178C56.7823 8.30723 49.1653 0.678467 39.7694 0.678467C34.5713 0.678467 29.9178 3.01329 26.7971 6.69295H30.3907L31.6741 8.51266H25.4503C25.0706 9.10388 24.7264 9.72014 24.4208 10.3584H32.5501L33.2632 12.0222H23.7302C23.5204 12.6146 23.3425 13.2221 23.1984 13.8427H28.4447H33.691L33.9819 15.6722H28.452H22.7565C22.702 16.0448 22.6974 16.3276 22.7085 16.6061C22.7216 16.9356 22.7565 17.259 22.7565 17.7178H33.9819L33.691 19.5037H22.8488C22.9104 20.0953 23.0021 20.6778 23.1225 21.2497H33.691L33.2632 22.9745H23.5815C23.7826 23.5961 24.0184 24.202 24.2865 24.79H32.5501L31.6741 26.6384H25.2715C25.6455 27.2469 26.0567 27.83 26.5018 28.3847H30.1058L28.4447 30.4338C31.4525 33.1228 35.4204 34.7571 39.7694 34.7571Z" fill="#c8b1a0"/>
</svg>
