<svg width="16" height="17" viewBox="0 0 16 17" fill="none" xmlns="http://www.w3.org/2000/svg">
<g clip-path="url(#clip0_109_3437)">
<path d="M12.0003 5.83317H11.3337V4.49984C11.3337 2.65984 9.84032 1.1665 8.00033 1.1665C6.16033 1.1665 4.66699 2.65984 4.66699 4.49984V5.83317H4.00033C3.26699 5.83317 2.66699 6.43317 2.66699 7.1665V13.8332C2.66699 14.5665 3.26699 15.1665 4.00033 15.1665H12.0003C12.7337 15.1665 13.3337 14.5665 13.3337 13.8332V7.1665C13.3337 6.43317 12.7337 5.83317 12.0003 5.83317ZM8.00033 11.8332C7.26699 11.8332 6.66699 11.2332 6.66699 10.4998C6.66699 9.7665 7.26699 9.1665 8.00033 9.1665C8.73366 9.1665 9.33366 9.7665 9.33366 10.4998C9.33366 11.2332 8.73366 11.8332 8.00033 11.8332ZM10.067 5.83317H5.93366V4.49984C5.93366 3.35984 6.86033 2.43317 8.00033 2.43317C9.14033 2.43317 10.067 3.35984 10.067 4.49984V5.83317Z" fill="#35AA56"/>
</g>
<defs>
<clipPath id="clip0_109_3437">
<rect width="16" height="16" fill="white" transform="translate(0 0.5)"/>
</clipPath>
</defs>
</svg>
