<svg width="100" height="24" viewBox="0 0 133 35" fill="none" xmlns="http://www.w3.org/2000/svg">
<path fill-rule="evenodd" clip-rule="evenodd" d="M9.78273 11.3436C9.43853 11.5149 9.26505 11.6718 9.1333 11.9308C8.98244 12.2273 7.52008 32.5468 7.6351 32.7484C7.67876 32.8248 7.77164 32.9213 7.84158 32.9627C8.03604 33.0776 7.6351 33.1412 11.5054 33.1412L13.2493 33.1412L14.7727 33.1412L14.8933 32.066C14.9028 32.0057 15.0228 30.376 15.1599 28.4445C15.2969 26.513 15.4261 24.8532 15.4467 24.756C15.5058 24.4788 15.427 24.6075 15.7524 24.4352C16.0438 24.2808 16.5348 24.4086 19.1968 23.9945C21.2171 23.6803 21.9265 23.5631 22.4001 23.4363C24.0242 23.0016 25.4345 21.5803 25.7712 21.2346C26.9038 20.0716 27.9623 17.2674 28.2556 15.5831C28.571 13.7719 28.2694 11.8887 27.429 10.9677C26.0296 9.43403 26.0957 9.17817 22.2424 9.49749C21.8009 9.53406 19.0077 9.91633 15.762 10.3843C10.1579 11.1924 10.0526 11.2093 9.78273 11.3436Z" fill="#c8b1a0"/>
<path fill-rule="evenodd" clip-rule="evenodd" d="M42.4093 8.53099C42.0442 8.9711 39.1234 27.2003 39.3311 27.7421C39.4501 28.0516 39.9068 28.1403 41.3684 28.1372C42.4044 28.1349 43.3904 28.0454 43.5594 27.9377C44.0204 27.6448 44.3079 26.695 44.673 24.2601C44.8544 23.0505 45.1177 21.9154 45.2588 21.7374C45.4218 21.5314 46.2031 21.414 47.4109 21.414C51.1502 21.414 53.6144 20.4737 55.0423 18.5024C56.0185 17.1549 56.6387 15.041 56.6579 12.9963C56.6775 10.9253 56.0822 9.88367 54.3782 9.00604C53.1546 8.3755 52.8814 8.34419 47.9002 8.2645C43.769 8.19852 42.6398 8.25337 42.4093 8.53099ZM50.1905 12.6558C50.9778 13.07 51.1352 13.3769 51.1398 14.5057C51.1447 15.7634 50.5905 16.8307 49.7279 17.2237C48.7996 17.6468 45.969 17.6362 45.9692 17.2095C45.9695 17.0318 46.1441 15.8964 46.3571 14.6868C46.57 13.4772 46.7447 12.4583 46.7449 12.4229C46.746 12.2089 49.7238 12.4102 50.1905 12.6558ZM61.8812 14.6687C57.0698 15.8328 54.2669 21.5951 56.4545 25.8254C57.7803 28.3892 62.3043 29.1201 65.1635 27.2327L66.1175 26.6032L66.1985 27.3074C66.2774 27.991 66.3333 28.014 68.0924 28.0865C69.2919 28.1359 70.063 28.0456 70.3721 27.8197C70.7414 27.5496 71.0353 26.2539 71.7735 21.6437C72.2873 18.4349 72.6332 15.6152 72.5419 15.3777C72.4061 15.0232 71.9988 14.9456 70.2741 14.9456C68.3895 14.9456 68.1579 14.9991 68.0365 15.463C67.873 16.0884 67.7496 16.1032 67.1581 15.5678C66.1048 14.6146 63.7581 14.2149 61.8812 14.6687ZM83.7105 18.578C82.4122 20.5759 81.2773 22.1408 81.1888 22.0556C81.1001 21.9705 80.5581 20.4233 79.9839 18.6173L78.9404 15.3337L76.5557 15.2592C74.4108 15.1924 74.1712 15.2312 74.1712 15.6473C74.1712 15.9016 74.9963 18.5849 76.0048 21.6106L77.8382 27.1116L75.9826 29.7108C74.9155 31.2055 74.188 32.4687 74.2703 32.6835C74.4972 33.2747 78.357 33.2084 78.8861 32.6043C80.2623 31.0327 90.7365 15.594 90.6244 15.3018C90.5233 15.0377 89.916 14.9456 88.2795 14.9456H86.0712L83.7105 18.578ZM65.8137 18.8157C66.4068 19.1772 66.7271 19.6357 66.9434 20.4318C67.2153 21.4334 67.1845 21.6585 66.6332 22.7076C65.985 23.9405 64.3198 25.0363 63.0944 25.0363C61.1886 25.0363 59.9932 23.4784 60.2768 21.3638C60.6054 18.9148 63.6662 17.5063 65.8137 18.8157Z" fill="#a5816b"/>
<path fill-rule="evenodd" clip-rule="evenodd" d="M93.8639 8.55985C93.3768 9.047 90.3019 28.0754 90.6533 28.4268C90.7859 28.5594 91.8978 28.6331 93.124 28.5904L95.3535 28.5127L95.8839 25.463C96.1756 23.7857 96.4994 22.2826 96.6036 22.1227C96.7075 21.9628 98.0202 21.757 99.5207 21.6652C101.021 21.5735 102.792 21.3131 103.457 21.0866C106.298 20.1184 107.917 17.6452 108.15 13.9212C108.334 10.9696 107.877 10.0025 105.847 9.05204C104.445 8.39517 104.112 8.35539 99.3077 8.2692C95.1676 8.19469 94.176 8.24772 93.8639 8.55985ZM127.979 8.82239C127.867 9.1666 124.916 28.0955 124.92 28.4464C124.923 28.7683 129.112 28.68 129.314 28.3538C129.564 27.9489 132.583 8.93509 132.435 8.68979C132.222 8.33391 128.099 8.45643 127.979 8.82239ZM101.947 13.0185C102.531 13.4778 102.646 13.7801 102.646 14.86C102.646 17.0616 101.307 17.9887 98.0717 18.026C96.8955 18.0398 96.9003 18.0671 97.502 14.7891L97.9279 12.4687H99.5883C100.866 12.4687 101.41 12.5952 101.947 13.0185ZM113.558 14.8753C108.256 15.9178 105.244 23.1946 108.554 26.9645C109.656 28.2204 110.732 28.6453 112.808 28.6453C114.639 28.6453 115.9 28.3146 117.007 27.5439C117.917 26.9107 118.104 26.9263 117.884 27.6177C117.772 27.9712 117.839 28.2661 118.065 28.4093C118.632 28.7686 121.582 28.6864 122.116 28.2963C122.493 28.0205 122.799 26.6585 123.576 21.8037C124.243 17.6394 124.473 15.573 124.29 15.3903C124.142 15.2421 123.092 15.1206 121.957 15.1206C119.978 15.1206 119.887 15.1477 119.727 15.7831L119.561 16.4455L118.802 15.8067C118.384 15.4553 117.437 15.0379 116.696 14.879C115.195 14.5574 115.176 14.5574 113.558 14.8753ZM117.584 19.0208C119.717 20.0958 119.089 23.7125 116.557 24.9382C115.321 25.5365 114.5 25.5924 113.265 25.162C111.849 24.6682 111.202 22.3441 112.035 20.7426C113.165 18.5705 115.348 17.8935 117.584 19.0208Z" fill="#c8b1a0"/>
<path fill-rule="evenodd" clip-rule="evenodd" d="M5.79894 0.227616C5.43383 0.393139 5.23975 0.572456 5.07241 0.898841C4.88079 1.27263 0.535281 28.6211 0.620374 28.9178C0.652689 29.0303 0.730852 29.1797 0.794187 29.2497C1.07459 29.5595 1.05555 29.5579 4.56406 29.5579H7.86876L7.90166 29.4122C7.91973 29.332 8.27092 27.1392 8.68207 24.5391C9.09322 21.939 9.45775 19.7069 9.49207 19.5788C9.59012 19.2134 9.89863 18.8415 10.2453 18.6709C10.5557 18.518 10.5847 18.5162 13.2786 18.4748C15.3231 18.4433 16.1593 18.4066 16.646 18.3271C19.5145 17.8581 21.4768 16.9039 23.1 15.1888C24.3869 13.829 25.3083 12.0073 25.8389 9.7741C26.4094 7.37252 26.3437 5.44277 25.6432 4.0254C24.4769 1.66533 22.254 0.479528 18.3945 0.158648C17.9524 0.121865 15.1331 0.0943421 11.8539 0.0947306C6.19183 0.0955077 6.08524 0.0978391 5.79894 0.227616Z" fill="#a5816b"/>
</svg>
