<svg width="31" height="31" viewBox="0 0 31 31" fill="none" xmlns="http://www.w3.org/2000/svg">
<path d="M29.0012 23.4748L25.9135 21.4285L23.1687 19.6098C22.6389 19.2595 21.927 19.3744 21.536 19.8733L19.8375 22.0438C19.4727 22.5148 18.8164 22.6501 18.2932 22.3622C17.1407 21.7249 15.7779 21.1249 12.7709 18.132C9.76393 15.1391 9.15647 13.7883 8.5154 12.6427C8.22573 12.1226 8.36189 11.4702 8.83569 11.1076L11.0191 9.41928C11.5211 9.0306 11.6367 8.32295 11.2842 7.79633L9.51087 5.15189L7.39606 1.99856C7.03611 1.46183 6.31556 1.30069 5.75908 1.63243L3.32011 3.08689C2.66098 3.47292 2.17646 4.09627 1.96692 4.82772C1.29995 7.24495 -0.081584 14.3948 8.51539 22.9405C17.1124 31.4862 23.7232 29.5346 26.155 28.8715C26.8908 28.6633 27.5179 28.1817 27.9062 27.5264L29.3694 25.102C29.7032 24.5488 29.5411 23.8326 29.0012 23.4748Z" stroke="#b0907b" stroke-width="1.5"/>
</svg>
