<svg width="130" height="25" viewBox="0 0 138 33" fill="none" xmlns="http://www.w3.org/2000/svg">
<path fill-rule="evenodd" clip-rule="evenodd" d="M7.0624 0.474682C6.95513 0.593235 6.9016 0.765851 6.93729 0.87774C6.97168 0.985437 10.4583 4.53149 14.6854 8.75791L22.3709 16.4422L14.6326 24.1833C10.3765 28.4409 6.89419 31.9842 6.89419 32.057C6.89419 32.13 6.99092 32.2864 7.10915 32.4046C7.31767 32.6132 7.46739 32.6196 12.1331 32.6196H16.9422L24.9235 24.6382C30.1324 19.4293 32.9049 16.5827 32.9049 16.4435C32.9049 16.3043 30.1324 13.4578 24.9235 8.24887L16.9422 0.267456H12.096C7.44654 0.267456 7.24232 0.27584 7.0624 0.474682ZM20.7324 2.44322L22.9082 4.61898L24.6834 2.84628C25.6596 1.87131 26.4865 0.985437 26.5207 0.87774C26.5561 0.766174 26.5022 0.592912 26.3952 0.474682C26.2167 0.277452 26.0238 0.267456 22.3822 0.267456H18.5567L20.7324 2.44322ZM79.6059 4.52128C79.2512 4.60469 78.8521 4.69841 78.7192 4.72937C78.4857 4.78386 78.4774 4.82846 78.4774 6.0198C78.4774 7.51187 78.2448 7.41814 80.6001 6.87546C80.8337 6.82172 80.842 6.77733 80.842 5.58578V4.35178L80.5464 4.3607C80.3838 4.36565 79.9606 4.43798 79.6059 4.52128ZM69.8545 6.00142L68.8092 6.22348L68.7797 7.89407L68.7502 9.56467L67.8097 9.59573L66.8693 9.62679V10.6395V11.6522L67.8097 11.6833L68.7502 11.7143L68.804 16.7122C68.8624 22.1472 68.8488 22.0256 69.4966 22.8751C70.3422 23.9838 72.6927 24.3165 74.9171 23.6424L75.4948 23.4673L75.4277 22.9767C75.3906 22.707 75.3596 22.3358 75.3588 22.1519C75.3558 21.5429 75.2716 21.5062 74.3485 21.7116C73.2804 21.9492 72.1532 21.8975 71.7363 21.5917C71.0628 21.0978 71.0614 21.0869 71.0613 16.148L71.0611 11.6606H73.3719H75.6828V10.6395V9.61841H73.3719H71.0611V7.68373C71.0611 6.61966 71.0249 5.75582 70.9805 5.7642C70.9361 5.77248 70.4294 5.87932 69.8545 6.00142ZM5.52218 11.2602C2.36274 14.4224 0.552734 16.3104 0.552734 16.4439C0.552734 16.5772 2.37209 18.4742 5.5498 21.6541L10.5468 26.6543L13.181 24.0219C14.6298 22.574 15.8152 21.3411 15.8152 21.282C15.8152 21.2228 14.7511 20.1096 13.4506 18.8081L11.086 16.4417L13.4506 14.0789C14.7511 12.7794 15.8152 11.667 15.8152 11.6069C15.8152 11.4996 10.6526 6.28646 10.5462 6.28646C10.5162 6.28646 8.25545 8.52467 5.52218 11.2602ZM45.0058 9.34906C44.0047 9.55768 42.8045 10.1445 42.255 10.6941C41.3652 11.5838 41.0138 12.8837 41.3297 14.1165C41.7239 15.6554 42.7115 16.4601 45.3728 17.4109C46.8926 17.9539 47.6359 18.3416 48.0408 18.8028C48.4407 19.2583 48.5375 19.5773 48.4572 20.1757C48.2882 21.4362 47.0817 21.961 44.6318 21.8399C43.5634 21.7871 42.0182 21.567 41.3691 21.3751C41.1984 21.3246 41.181 21.4235 41.181 22.4438V23.5681L41.8528 23.6897C46.042 24.4477 49.1033 23.8093 50.3526 21.9171C51.0209 20.9048 51.1387 19.0933 50.6047 18.0396C50.0621 16.9686 49.13 16.3493 46.8238 15.5276C44.5345 14.7117 43.8536 14.254 43.6983 13.4262C43.5294 12.5262 44.1829 11.714 45.2982 11.4375C46.0351 11.2549 48.2261 11.3738 49.2422 11.6515C49.6856 11.7727 50.1088 11.8726 50.1827 11.8737C50.2812 11.875 50.317 11.5922 50.317 10.8122C50.317 9.89872 50.2905 9.73868 50.1289 9.67667C49.0743 9.27135 46.2461 9.09046 45.0058 9.34906ZM57.5183 9.25641C55.9433 9.45332 53.9714 9.96665 53.9714 10.1797C53.9714 10.2473 54.0265 10.7328 54.094 11.2588C54.1967 12.0595 54.2448 12.2057 54.3896 12.1572C56.2229 11.5441 57.2722 11.3401 58.6005 11.339C59.8946 11.3378 60.5145 11.5441 61.052 12.1548C61.5695 12.7426 61.7422 13.3921 61.6913 14.559L61.6564 15.3616L59.2154 15.7045C56.3298 16.1097 55.4345 16.3673 54.4931 17.0633C52.8904 18.2483 52.784 21.3289 54.2939 22.8387C55.8384 24.3832 58.7075 24.1877 61.2265 22.3662L61.7639 21.9777L61.7948 22.9456C61.8308 24.0735 61.744 24.0244 63.1935 23.7366L64.0856 23.5595L64.0534 18.1743C64.0214 12.8539 64.018 12.7809 63.772 12.0994C63.0594 10.1256 61.7339 9.2994 59.1843 9.23964C58.4749 9.22298 57.7252 9.23062 57.5183 9.25641ZM80.2508 9.24384C80.1917 9.26501 79.7685 9.36271 79.3103 9.46116L78.4774 9.64001V16.7767V23.9135L78.7192 23.9119C78.9279 23.9105 79.2564 23.8448 80.6001 23.5352L80.842 23.4795V16.334V9.18848L80.6001 9.19697C80.4672 9.2016 80.3099 9.22277 80.2508 9.24384ZM88.7419 9.24813C88.6237 9.27565 88.2609 9.35164 87.9358 9.41699C86.5119 9.70354 85.2695 10.5678 84.7442 11.6376C84.4779 12.18 84.4427 12.3709 84.4432 13.2728C84.4436 14.1729 84.4779 14.3589 84.7327 14.8429C85.0892 15.5197 85.8747 16.2404 86.6924 16.6408C87.0323 16.8071 87.9469 17.1841 88.7247 17.4784C91.0886 18.3724 91.6436 18.8329 91.6285 19.8866C91.6169 20.6902 91.2915 21.1765 90.5249 21.5359C89.9587 21.8015 89.8317 21.8174 88.312 21.8135C86.8586 21.8097 85.8467 21.691 84.5232 21.3694C84.2841 21.3113 84.2814 21.3233 84.2814 22.4323V23.5539L84.9706 23.681C87.7912 24.2006 90.5051 24.0416 92.0221 23.2677C93.5065 22.5104 94.3469 20.772 94.0653 19.0413C93.787 17.332 92.834 16.5216 89.8705 15.4743C88.2446 14.8997 87.6825 14.6115 87.2467 14.129C86.9158 13.7628 86.861 13.628 86.861 13.1809C86.861 12.4919 87.1857 12.0087 87.8822 11.6612C88.6634 11.2714 90.4692 11.2238 91.9126 11.555C92.4742 11.6839 93.0443 11.8147 93.1794 11.8457C93.4247 11.902 93.4251 11.8999 93.3944 10.7895L93.3636 9.67688L92.5575 9.48288C91.7847 9.29682 89.2132 9.13861 88.7419 9.24813ZM98.3729 9.41022C97.8765 9.52221 97.4514 9.63292 97.428 9.65635C97.3831 9.70128 97.3768 31.0265 97.4217 31.0698C97.4361 31.0837 97.9437 30.9959 98.5497 30.8749L99.6514 30.6546V27.162V23.6693L100.162 23.7417C101.945 23.9945 102.496 24.0349 103.367 23.9769C106.469 23.7703 108.634 22.2359 109.608 19.5531C110.507 17.0764 110.315 13.5499 109.177 11.642C108.742 10.9121 107.836 10.0671 107.128 9.72912C105.171 8.79628 102.454 9.14452 100.331 10.6003C100.084 10.7697 99.8296 10.9082 99.7664 10.9082C99.6942 10.9082 99.6514 10.5874 99.6514 10.0483C99.6514 9.05252 99.7468 9.10013 98.3729 9.41022ZM116.257 9.31166C115.449 9.41484 113.328 9.89754 113.124 10.0249C113.031 10.0825 113.028 10.3482 113.112 11.0695C113.174 11.6015 113.258 12.0752 113.3 12.1223C113.342 12.1694 113.624 12.1101 113.927 11.9905C114.802 11.6458 116.522 11.3381 117.574 11.3381C119.871 11.3381 120.713 12.1268 120.753 14.3179L120.772 15.3627L118.568 15.6571C117.356 15.819 116.05 16.0275 115.666 16.1204C114.598 16.3788 113.705 16.8593 113.155 17.4711C111.868 18.9028 111.973 21.5109 113.373 22.86C114.907 24.3383 117.491 24.2201 119.974 22.558C120.45 22.2395 120.86 21.9789 120.886 21.9789C120.912 21.9789 120.933 22.4142 120.933 22.9462V23.9135L121.228 23.9032C121.391 23.8976 121.887 23.8129 122.33 23.7151L123.136 23.5374L123.134 18.3782C123.131 12.7766 123.112 12.5635 122.504 11.3623C122.185 10.7336 121.407 9.99578 120.761 9.7102C119.672 9.22836 118.041 9.08412 116.257 9.31166ZM125.367 9.80651C125.395 9.91001 126.514 13.1313 127.851 16.965C129.189 20.7988 130.284 23.9923 130.284 24.0617C130.284 24.1311 130.023 24.7187 129.703 25.3674C129.047 26.7008 128.285 27.6181 126.952 28.6781C126.508 29.0307 126.146 29.3486 126.146 29.3846C126.146 29.5041 127.326 31.0002 127.423 31.0038C127.64 31.0119 129.276 29.7254 129.944 29.0223C130.791 28.1303 131.428 27.1932 131.992 26.0095C132.217 25.5365 133.648 21.7155 135.172 17.5184C136.696 13.3212 137.966 9.82671 137.994 9.75276C138.034 9.64969 137.732 9.61841 136.7 9.61841H135.355L135.128 10.2902C132.9 16.8921 131.627 20.4741 131.511 20.4741C131.435 20.4741 131.348 20.3895 131.317 20.286C131.286 20.1825 130.555 17.8247 129.692 15.0463C128.829 12.2678 128.098 9.91001 128.068 9.80651C128.019 9.64034 127.855 9.61841 126.663 9.61841C125.431 9.61841 125.319 9.63464 125.367 9.80651ZM105.786 11.6874C107.033 12.336 107.585 13.5502 107.679 15.8524C107.812 19.0953 106.664 21.1018 104.331 21.7056C103.578 21.9005 102.063 21.9101 100.672 21.7288L99.7051 21.6027L99.6891 17.4308L99.6731 13.2589L100.266 12.7932C101.476 11.844 102.804 11.3524 104.183 11.3439C105.03 11.3387 105.175 11.3697 105.786 11.6874ZM61.7092 18.6738L61.7083 20.2054L61.0643 20.6203C60.7101 20.8485 60.0213 21.209 59.5336 21.4214C58.7807 21.7493 58.5252 21.8081 57.8408 21.8112C56.9069 21.8153 56.5024 21.6452 56.0567 21.0609C55.7405 20.6463 55.6114 19.9117 55.737 19.2418C55.8265 18.7647 56.3705 18.1297 56.8717 17.9174C57.2465 17.7586 60.6902 17.1716 61.3608 17.1523L61.7101 17.1422L61.7092 18.6738ZM120.825 18.6418V20.1414L120.369 20.4548C119.639 20.9557 118.401 21.5412 117.684 21.7249C116.136 22.1214 114.924 21.4713 114.743 20.1469C114.612 19.1962 115.009 18.3928 115.811 17.9825C116.238 17.7635 119.451 17.1875 120.422 17.1555L120.825 17.1422V18.6418ZM20.7057 30.47L18.5581 32.6196H22.3457C25.9902 32.6196 26.1417 32.6114 26.3485 32.4046C26.4667 32.2864 26.5634 32.1324 26.5634 32.0625C26.5634 31.9398 23.0318 28.3203 22.9122 28.3203C22.8798 28.3203 21.8869 29.2877 20.7057 30.47Z" fill="#f14a41"/>
</svg>
