<svg width="27" height="28" viewBox="0 0 27 28" fill="none" xmlns="http://www.w3.org/2000/svg">
<path fill-rule="evenodd" clip-rule="evenodd" d="M11.8318 20.72C6.88876 20.72 2.81903 16.6281 2.81903 11.5025C2.81903 6.37696 6.88876 2.28503 11.8318 2.28503C16.7749 2.28503 20.8446 6.37696 20.8446 11.5025C20.8446 14.0969 19.7996 16.4319 18.1213 18.1045C18.0596 18.1659 17.9971 18.2265 17.9338 18.2861C17.8903 18.3179 17.8488 18.3536 17.8098 18.3933C17.7954 18.408 17.7815 18.423 17.7682 18.4383C16.1777 19.8637 14.1017 20.72 11.8318 20.72ZM18.4753 20.4498C16.6286 21.8747 14.3271 22.72 11.8318 22.72C5.74963 22.72 0.819031 17.6978 0.819031 11.5025C0.819031 5.30727 5.74963 0.285034 11.8318 0.285034C17.914 0.285034 22.8446 5.30727 22.8446 11.5025C22.8446 14.4281 21.7451 17.0921 19.944 19.0891L26.5309 25.5644C26.9248 25.9516 26.9302 26.5847 26.543 26.9786C26.1558 27.3724 25.5227 27.3778 25.1288 26.9906L18.4753 20.4498Z" fill="#3D4738"/>
</svg>
