<svg width="25" height="26" viewBox="0 0 25 26" fill="none" xmlns="http://www.w3.org/2000/svg">
<path fill-rule="evenodd" clip-rule="evenodd" d="M19.2422 9.51098C19.2422 13.3206 16.2092 16.356 12.5325 16.356C8.85575 16.356 5.82275 13.3206 5.82275 9.51098C5.82275 5.70139 8.85575 2.66595 12.5325 2.66595C16.2092 2.66595 19.2422 5.70139 19.2422 9.51098ZM16.8345 17.2035C19.4669 15.6819 21.2422 12.807 21.2422 9.51098C21.2422 4.62601 17.3427 0.665955 12.5325 0.665955C7.72222 0.665955 3.82275 4.62601 3.82275 9.51098C3.82275 12.807 5.59798 15.6819 8.23041 17.2035C4.71224 18.3885 1.89891 20.9885 0.600246 24.3032C0.398777 24.8174 0.652317 25.3976 1.16654 25.5991C1.68077 25.8005 2.26095 25.547 2.46242 25.0328C3.94221 21.2558 7.86623 18.5038 12.5324 18.5038C17.1986 18.5038 21.1226 21.2558 22.6024 25.0328C22.8039 25.547 23.3841 25.8005 23.8983 25.5991C24.4125 25.3976 24.6661 24.8174 24.4646 24.3032C23.1659 20.9885 20.3526 18.3886 16.8345 17.2035Z" fill="#000"/>
</svg>
