<svg width="88" height="26" viewBox="0 0 107 35" fill="none" xmlns="http://www.w3.org/2000/svg">
<path fill-rule="evenodd" clip-rule="evenodd" d="M0.225098 1.08732C0.225098 1.25677 3.89396 2.11692 5.74859 3.18858C11.422 6.46687 11.8844 7.44199 14.51 9.41045C17.3885 11.5687 16.5416 14.7435 20.4723 15.608C20.9242 16.4917 22.0016 18.1718 22.0032 18.044C22.0129 17.2526 18.6021 3.18121 18.3223 2.67266C18.134 2.33012 17.7243 1.84706 17.4121 1.59921C16.8625 1.16263 16.6072 1.14635 9.4151 1.08723C3.29432 1.03689 0.225098 0.849753 0.225098 1.08732Z" fill="#f2a119"/>
<path fill-rule="evenodd" clip-rule="evenodd" d="M67.6829 1.20402C61.1921 2.17957 56.785 6.05928 56.4261 11.1135C56.1451 15.0712 58.0696 17.6609 63.4773 20.6025C64.9329 21.3941 66.4181 22.2747 66.7778 22.5594C68.6602 24.0491 68.3514 26.1737 66.0921 27.275C63.7928 28.396 59.5008 28.0963 55.9028 26.5634C54.9223 26.1456 54.0928 25.8361 54.0596 25.8753C53.9918 25.9558 52.9463 32.5356 52.9463 32.8824C52.9463 33.1733 55.2069 33.912 57.2689 34.295C65.2958 35.7853 72.5439 33.6193 75.3461 28.8928C76.345 27.2077 76.7349 25.5246 76.6484 23.2691C76.5812 21.5164 76.4892 21.076 75.9851 20.0946C74.9798 18.1382 73.2991 16.6911 69.8392 14.8041C66.5408 13.0049 65.0166 11.7478 65.018 10.8276C65.022 7.94718 70.3413 6.92879 75.3455 8.85032C76.1022 9.1408 76.7625 9.33467 76.8127 9.28112C76.9733 9.11017 77.9776 2.50882 77.8619 2.38543C77.8006 2.32031 76.8697 2.02897 75.7932 1.73828C73.5834 1.14147 69.7703 0.890188 67.6829 1.20402ZM32.0076 2.2222C31.2972 4.24463 24.3045 23.2175 24.1783 23.4647C24.0073 23.7997 24.0407 23.8839 23.4637 21.6625C22.5829 18.2723 19.0202 13.3063 14.7924 9.57631C13.7802 8.68324 12.657 7.7696 12.2967 7.54595L11.6412 7.13915L11.764 7.63849C11.8314 7.91312 13.4957 14.0003 15.4627 21.1659L19.0389 34.1943H23.4977C26.876 34.1943 27.9813 34.1294 28.0591 33.9265C28.1155 33.7794 31.0298 26.5734 34.5354 17.9137C38.0408 9.2539 40.9566 2.04825 41.0143 1.90087C41.0966 1.69136 40.151 1.6331 36.6669 1.6331H32.2144L32.0076 2.2222ZM44.4123 2.2222C44.2972 2.80444 39.2658 34.2035 39.2658 34.3387C39.2658 34.377 41.1246 34.4085 43.3963 34.4085C46.5177 34.4085 47.5493 34.3432 47.6187 34.1407C47.6694 33.9936 48.8417 26.7877 50.224 18.1279C51.6064 9.46812 52.7758 2.21427 52.8229 2.00798C52.9024 1.66009 52.6074 1.6331 48.7186 1.6331H44.5286L44.4123 2.2222ZM91.0945 1.89509C89.444 2.36487 89.3627 2.52723 82.5885 18.8776C79.1225 27.2429 76.2861 34.1613 76.285 34.2521C76.2842 34.3427 78.2428 34.3909 80.6374 34.3592L84.9912 34.3014L85.8442 31.945L86.6973 29.5886H92.098H97.4987L97.9327 31.6721C98.1715 32.8182 98.4198 33.9025 98.4845 34.082C98.5841 34.3588 99.1883 34.4085 102.447 34.4085H106.292L106.166 33.8194C106.097 33.4955 104.571 26.145 102.776 17.4852L99.5126 1.74021L95.6937 1.70657C93.5793 1.68794 91.5266 1.77191 91.0945 1.89509ZM94.8474 16.5748C95.4861 19.7266 96.0068 22.3773 96.0042 22.4658C96.0015 22.5543 94.4663 22.6265 92.5929 22.6265H89.1863L89.8792 20.7521C90.2602 19.7212 91.2233 17.0703 92.0195 14.8611C92.8158 12.652 93.5163 10.8445 93.5765 10.8445C93.6366 10.8445 94.2084 13.4232 94.8474 16.5748Z" fill="#00549a"/>
</svg>
