<?xml version="1.0" standalone="no"?>
<!DOCTYPE svg PUBLIC "-//W3C//DTD SVG 20010904//EN"
 "http://www.w3.org/TR/2001/REC-SVG-20010904/DTD/svg10.dtd">
<svg version="1.0" xmlns="http://www.w3.org/2000/svg"
 width="416.000000pt" height="416.000000pt" viewBox="0 0 416.000000 416.000000"
 preserveAspectRatio="xMidYMid meet">
<metadata>
Created by potrace 1.14, written by Peter Selinger 2001-2017
</metadata>
<g transform="translate(0.000000,416.000000) scale(0.100000,-0.100000)"
fill="#000000" stroke="none">
<path d="M3019 3587 c-6 -124 -7 -117 21 -118 51 -2 287 -8 350 -8 l65 -1
-200 -200 c-192 -192 -200 -199 -222 -185 -301 198 -698 202 -994 10 -73 -47
-173 -140 -227 -212 -49 -63 -110 -193 -132 -280 -23 -89 -31 -224 -19 -310
30 -198 144 -396 302 -523 80 -65 240 -145 342 -171 85 -22 277 -30 365 -15
191 32 364 121 495 255 226 231 293 569 174 870 -27 67 -99 184 -142 229 l-31
33 187 187 188 187 -4 -192 -3 -193 25 -1 c40 -1 94 -1 111 0 13 1 16 33 18
214 2 116 5 259 6 317 1 58 1 110 -1 116 -3 7 -62 11 -171 13 -92 1 -242 4
-334 6 l-168 3 -1 -31z m-299 -531 c319 -86 537 -374 524 -693 -12 -284 -211
-530 -506 -625 -95 -31 -287 -34 -391 -7 -265 68 -461 261 -522 514 -7 28 -13
93 -14 145 -5 314 213 585 539 669 95 24 273 23 370 -3z"/>
<path d="M1585 3605 c-5 -2 -22 -6 -36 -9 -105 -23 -128 -200 -31 -245 39 -19
72 -13 103 18 16 16 30 38 31 48 0 10 1 25 2 33 2 30 30 14 52 -30 46 -91 0
-224 -121 -344 -32 -32 -40 -47 -32 -55 17 -17 23 -14 59 22 117 119 168 219
169 326 0 83 -14 128 -58 177 -29 34 -109 68 -138 59z"/>
<path d="M1020 3210 c0 -23 -4 -22 110 -24 l85 -1 1 -418 2 -418 -33 50 c-61
92 -116 135 -201 154 -96 22 -182 6 -273 -53 -32 -21 -74 -57 -94 -82 -37 -45
-92 -154 -101 -198 -2 -14 -7 -38 -10 -55 -19 -103 -6 -254 30 -345 43 -111
122 -198 224 -247 48 -24 68 -27 150 -28 80 0 102 4 138 23 52 28 103 80 134
138 13 24 26 44 30 44 4 0 6 -41 5 -90 -2 -90 -2 -90 23 -91 134 -5 336 -2
342 5 3 5 4 15 1 23 -4 9 -28 13 -89 13 l-84 0 0 810 0 810 -195 0 c-188 0
-195 -1 -195 -20z m12 -730 c87 -60 135 -135 163 -252 15 -63 15 -284 1 -353
-38 -181 -154 -294 -289 -283 -93 8 -143 62 -166 179 -14 73 -7 550 9 604 16
53 55 104 94 121 46 21 146 12 188 -16z"/>
<path d="M1110 1433 c-57 -8 -152 -49 -200 -85 -28 -21 -53 -38 -55 -38 -3 0
-5 23 -5 50 l0 50 -188 0 -189 0 2 -22 c2 -22 6 -23 81 -25 43 0 84 -1 90 -2
9 -1 12 -120 11 -439 l0 -437 -81 1 c-44 0 -86 -2 -93 -4 -11 -3 -12 -26 -1
-37 4 -5 339 -8 504 -6 24 1 31 5 30 19 -2 26 -9 28 -92 26 l-76 -1 5 311 c5
332 8 367 36 430 66 149 271 196 351 79 l25 -36 3 -392 3 -391 -83 0 c-79 1
-83 0 -86 -22 -4 -25 -28 -23 253 -23 272 0 273 0 271 14 -4 29 -17 34 -86 32
l-71 -2 2 316 c1 263 5 326 19 378 33 119 106 183 218 191 85 6 130 -13 160
-66 20 -37 21 -50 22 -428 l0 -390 -76 0 c-42 1 -79 -3 -82 -9 -15 -24 -9 -35
21 -35 50 -1 407 -1 455 -1 35 1 42 4 42 21 0 23 4 22 -92 24 l-73 1 -1 372
c-2 320 -4 378 -19 422 -32 96 -112 149 -236 155 -129 7 -238 -28 -330 -104
l-45 -38 -19 33 c-20 38 -71 76 -127 94 -37 12 -152 20 -198 14z"/>
<path d="M2800 1425 c-172 -36 -315 -168 -376 -347 -26 -76 -24 -253 4 -326
50 -130 142 -235 252 -289 196 -95 410 -57 561 100 151 154 181 444 67 631
-110 181 -313 273 -508 231z m207 -60 c24 -9 56 -32 73 -51 50 -57 62 -122 64
-343 2 -235 -8 -341 -36 -398 -38 -75 -133 -119 -239 -110 -64 6 -102 19 -146
53 -72 55 -91 133 -90 387 0 289 10 348 73 411 72 72 197 93 301 51z"/>
</g>
</svg>
