<svg width="36" height="36" viewBox="0 0 36 36" fill="none" xmlns="http://www.w3.org/2000/svg">
<g clip-path="url(#clip0_2_361)">
<path d="M36 18C36 8.05887 27.9411 0 18 0C8.05887 0 0 8.05887 0 18C0 27.9411 8.05887 36 18 36C27.9411 36 36 27.9411 36 18Z" fill="url(#paint0_linear_2_361)"/>
<path d="M15.8093 20.882L17.4641 18.4602C19.1373 16.0057 20.8111 13.5573 22.4857 11.115C22.9827 10.393 23.6455 10.2968 24.3634 10.7795C24.6314 10.9616 24.9034 11.1334 25.1673 11.3195C25.8259 11.7859 25.9609 12.4691 25.5048 13.138C23.717 15.7643 21.9252 18.3886 20.1293 21.0109C19.2552 22.2859 18.3866 23.5616 17.5234 24.838C17.0161 25.5907 16.3595 25.7359 15.613 25.2102C14.0134 24.0852 12.4227 22.9473 10.8409 21.7964C10.1311 21.283 10.0473 20.6202 10.5586 19.9084C10.7632 19.6302 10.9534 19.348 11.16 19.0739C11.5855 18.5134 12.2257 18.3723 12.8168 18.7609C13.5061 19.215 14.1689 19.712 14.8439 20.1927L15.8093 20.882Z" fill="white"/>
</g>
<defs>
<linearGradient id="paint0_linear_2_361" x1="5.27114" y1="5.27114" x2="30.7289" y2="30.7289" gradientUnits="userSpaceOnUse">
<stop stop-color="#FDC80E"/>
<stop offset="1" stop-color="#EB513B"/>
</linearGradient>
<clipPath id="clip0_2_361">
<rect width="36" height="36" fill="white"/>
</clipPath>
</defs>
</svg>
