<svg width="38" height="38" viewBox="0 0 38 38" fill="none" xmlns="http://www.w3.org/2000/svg">
<g clip-path="url(#clip0_4_419)">
<path d="M19 38C29.4934 38 38 29.4934 38 19C38 8.50659 29.4934 0 19 0C8.50659 0 0 8.50659 0 19C0 29.4934 8.50659 38 19 38Z" fill="url(#paint0_linear_4_419)"/>
<path d="M28.5668 11.8253C28.3056 11.5639 27.9954 11.3566 27.6541 11.2152C27.3127 11.0738 26.9469 11.001 26.5774 11.001C26.2079 11.001 25.842 11.0738 25.5006 11.2152C25.1593 11.3566 24.8492 11.5639 24.5879 11.8253L16.2057 20.2068L13.4121 17.4132C13.1509 17.1519 12.8407 16.9446 12.4994 16.8031C12.158 16.6617 11.7921 16.5889 11.4226 16.5889C11.0531 16.5889 10.6873 16.6617 10.3459 16.8031C10.0046 16.9446 9.69442 17.1519 9.43321 17.4132C9.17199 17.6744 8.96478 17.9845 8.82341 18.3258C8.68205 18.6671 8.60928 19.0329 8.60928 19.4023C8.60928 19.7717 8.68205 20.1375 8.82341 20.4787C8.96478 20.82 9.17199 21.1301 9.43321 21.3913L14.2166 26.1747C14.4778 26.4361 14.788 26.6434 15.1293 26.7848C15.4707 26.9262 15.8365 26.999 16.206 26.999C16.5755 26.999 16.9414 26.9262 17.2828 26.7848C17.6241 26.6434 17.9343 26.4361 18.1955 26.1747L28.5668 15.8034C28.828 15.5422 29.0352 15.2321 29.1766 14.8908C29.318 14.5495 29.3907 14.1837 29.3907 13.8143C29.3907 13.4449 29.318 13.0791 29.1766 12.7379C29.0352 12.3966 28.828 12.0865 28.5668 11.8253Z" fill="white"/>
</g>
<defs>
<linearGradient id="paint0_linear_4_419" x1="19" y1="0" x2="19" y2="37.7187" gradientUnits="userSpaceOnUse">
<stop stop-color="#FDAE3E"/>
<stop offset="1" stop-color="#FF0749"/>
</linearGradient>
<clipPath id="clip0_4_419">
<rect width="38" height="38" fill="white"/>
</clipPath>
</defs>
</svg>
