<svg width="32" height="32" viewBox="0 0 32 32" fill="none" xmlns="http://www.w3.org/2000/svg">
<path fill-rule="evenodd" clip-rule="evenodd" d="M7.17735 19.4399C4.03869 18.8319 1.66669 16.0666 1.66669 12.7519C1.66669 8.99194 4.71869 5.93994 8.47869 5.93994C12.2387 5.93994 15.2907 8.99194 15.2907 12.7519C15.2907 17.7626 13.6027 20.8746 11.6214 22.8199C8.58802 25.7986 4.78935 26.0573 4.78935 26.0573C4.40269 26.0853 4.03602 25.8866 3.84669 25.5493C3.65602 25.2133 3.67869 24.7959 3.90269 24.4813C3.90269 24.4813 5.70802 21.9399 6.83335 20.0599C6.95069 19.8626 7.06935 19.6453 7.17735 19.4399Z" fill="#555555"/>
<path fill-rule="evenodd" clip-rule="evenodd" d="M22.22 19.4399C19.0814 18.8319 16.7094 16.0666 16.7094 12.7519C16.7094 8.99194 19.7614 5.93994 23.5214 5.93994C27.2814 5.93994 30.3334 8.99194 30.3334 12.7519C30.3334 17.7626 28.6454 20.8746 26.664 22.8199C23.6307 25.7986 19.832 26.0573 19.832 26.0573C19.4454 26.0853 19.0787 25.8866 18.8894 25.5493C18.7 25.2133 18.7214 24.7959 18.9454 24.4813C18.9454 24.4813 20.7507 21.9399 21.876 20.0599C21.9934 19.8626 22.112 19.6453 22.22 19.4399Z" fill="#555555"/>
</svg>
