<svg width="106" height="134" viewBox="0 0 106 134" fill="none" xmlns="http://www.w3.org/2000/svg">
    <g clip-path="url(#clip0_36_292)">
    <path d="M8.34211 51.4163C8.34211 49.782 8.42019 44.6515 8.72602 42.3987C8.88219 41.0966 9.58495 36.4152 14.6344 36.4152C17.7383 36.4152 20.3021 38.5117 21.9354 41.1551C24.0306 44.7296 24.1868 48.6166 24.1868 51.8069C24.1868 63.4613 18.5191 66.8861 14.7125 66.8861C9.58495 66.8861 8.8041 61.8336 8.64793 60.5901C8.3421 58.5652 8.34211 54.2159 8.34211 51.4163M17.9725 14.1872H24.421V41.9364C23.1196 39.4493 20.4582 34.7029 14.244 34.7029C7.79551 34.7029 0.650757 40.4585 0.650757 51.7288C0.650757 62.9991 8.02977 68.5138 14.4002 68.5138C20.9072 68.5138 23.1782 63.5395 24.421 60.7463V67.5827H36.4396V66.1047H30.7719V12.7157H17.953L17.9725 14.1872Z" fill="black"/>
    <path d="M36.0751 20.2422C40.1095 16.492 43.0116 12.5985 43.0116 7.92368C43.0116 2.96891 39.7581 0.423156 36.856 0.423156C36.2418 0.39611 35.6287 0.495906 35.0549 0.716312C34.481 0.936718 33.9586 1.27301 33.5203 1.70425C33.082 2.13549 32.7371 2.65243 32.5072 3.22286C32.2773 3.79329 32.1672 4.40498 32.1839 5.01982C32.1839 7.14887 33.4853 9.12817 35.6522 9.12817C36.4981 9.12817 39.0488 8.84821 38.8341 4.57057C39.5941 5.02884 40.2139 5.68705 40.6258 6.47348C41.0377 7.25991 41.226 8.14441 41.1701 9.03053C41.1701 13.4189 36.4981 17.9504 35.086 19.2981L36.0751 20.2422Z" fill="black"/>
    <path d="M67.5043 17.6835C80.5834 17.6835 91.1834 27.8144 91.1834 40.3022C91.1834 52.79 80.5834 62.9209 67.5043 62.9209C54.4251 62.9209 43.8186 52.7966 43.8186 40.3022C43.8186 27.8079 54.4186 17.6835 67.5043 17.6835ZM106 0.384139L101.055 0.299494L83.6873 -0.0195312L83.6027 4.92871L98.0744 5.18264L84.8521 18.4257C79.8008 14.7863 73.7288 12.8378 67.5043 12.859C51.627 12.859 38.7626 25.1449 38.7626 40.3022C38.7626 55.4595 51.627 67.752 67.5043 67.752C83.3815 67.752 96.2394 55.4595 96.2394 40.3022C96.2207 33.3333 93.479 26.6481 88.6001 21.6747L100.898 9.37563L100.677 22.0653L105.623 22.1499L106 0.384139Z" fill="black"/>
    <path d="M87.7802 82.4406C87.8583 84.6152 87.8583 86.7182 87.8583 88.8928C87.8583 97.5978 87.6241 99.9613 85.3726 102.103C83.7774 103.416 81.763 104.109 79.6985 104.057C77.6623 104.111 75.6669 103.48 74.0308 102.266C71.1547 100.013 70.9985 96.6733 70.9985 90.4554C70.9985 80.3506 70.9985 77.7071 74.0308 75.2981C75.6093 74.0882 77.5546 73.4562 79.5423 73.5076C87.3898 73.5076 87.6241 79.6474 87.7802 82.447M95.6538 88.7366C95.6538 78.9703 88.1967 71.8669 79.6529 71.8669C70.953 71.8669 63.3853 79.2502 63.3853 88.7951C63.3853 98.34 70.9985 105.658 79.6529 105.658C88.1121 105.658 95.6538 98.5875 95.6538 88.73M5.97999 74.2759V103.269H0V104.747H17.7122V103.269H12.3634V87.0242C12.5196 82.4666 12.7538 79.4065 14.6149 77.0756C15.3708 76.1324 16.3285 75.3708 17.4174 74.8469C18.5064 74.3229 19.6989 74.0499 20.9072 74.0481C21.7852 74.0137 22.6569 74.2109 23.4346 74.62C24.2124 75.0291 24.869 75.6358 25.3385 76.379C26.1128 77.6811 26.1128 79.6343 26.1128 82.2843V103.269H20.6014V104.747H37.8451V103.269H32.7956V87.0242C32.8737 82.3624 32.9518 79.5627 35.047 76.9193C35.7917 75.9886 36.7381 75.2394 37.8146 74.7285C38.8912 74.2175 40.0698 73.9581 41.2613 73.9699C43.5908 73.9699 45.3802 74.8228 46.1546 76.7631C46.545 77.7788 46.545 78.9442 46.545 81.6658V103.269H41.1832V104.747H58.505V103.269H52.9024V81.0407C52.9024 78.9442 52.5901 76.6133 51.113 74.6666C50.2605 73.5793 48.0872 71.8669 43.6559 71.8669C41.5099 71.7948 39.3745 72.1961 37.4009 73.0422C35.4273 73.8884 33.664 75.1587 32.236 76.7631C31.7743 75.568 30.996 74.5213 29.9845 73.7355C28.2732 72.4334 25.7094 71.8669 23.3018 71.8669C19.1766 71.8673 15.2162 73.4875 12.2723 76.379V72.8045H0V74.2759H5.97999Z" fill="black"/>
    <path d="M84.5527 119.637V119.351H81.0259V119.637H81.9889V126.942H81.0389V127.235H87.0189L87.2531 124.768H86.9408C86.858 125.235 86.676 125.679 86.4072 126.07C86.1999 126.371 85.9148 126.609 85.5825 126.761C85.2502 126.912 84.883 126.97 84.5202 126.929H83.6157V119.637H84.5527ZM73.9853 123.387C74.4733 123.387 74.9418 123.42 75.2346 123.882C75.3906 124.197 75.4666 124.546 75.4558 124.898H75.7552V121.734H75.4819C75.4038 122.704 75.2476 123.036 73.9983 123.075H73.7119V119.689H75.3908C75.6788 119.663 75.9687 119.715 76.229 119.841C76.4893 119.968 76.7102 120.163 76.8679 120.405C77.0137 120.716 77.125 121.041 77.1997 121.375H77.434L77.2648 119.37H71.0766V119.657H72.0136V126.942H71.0766V127.235H77.5446L77.7008 124.748H77.434C77.2648 125.399 77.0436 126.33 76.2172 126.701C75.8044 126.867 75.3597 126.939 74.9158 126.91H73.6794V123.361L73.9853 123.387ZM66.0401 124.605V125.796C66.0591 125.954 66.0414 126.113 65.9883 126.262C65.9353 126.411 65.8483 126.546 65.7343 126.656C65.5906 126.815 65.4131 126.939 65.2149 127.02C65.0167 127.102 64.8028 127.137 64.589 127.125C63.2876 127.125 63.0859 125.888 63.0143 125.451C62.9112 124.7 62.859 123.943 62.8582 123.185C62.8528 122.386 62.9401 121.588 63.1185 120.809C63.1911 120.413 63.4073 120.058 63.7255 119.812C64.0437 119.565 64.4416 119.445 64.8428 119.474C65.1487 119.459 65.4544 119.509 65.7394 119.621C66.0244 119.734 66.2822 119.906 66.4956 120.125C66.7757 120.543 66.9622 121.016 67.0422 121.512H67.3545V119.299H67.1073L66.5932 119.676C66.0918 119.36 65.5136 119.186 64.9209 119.175C64.0078 119.151 63.1196 119.474 62.4352 120.08C61.9764 120.501 61.6174 121.02 61.3844 121.597C61.1514 122.175 61.0502 122.798 61.0883 123.42C61.0524 124.502 61.4161 125.559 62.1099 126.389C62.4142 126.724 62.7879 126.988 63.2049 127.163C63.6218 127.339 64.072 127.421 64.524 127.405C65.1212 127.438 65.7176 127.324 66.2601 127.072C66.8026 126.819 67.2747 126.437 67.6344 125.959V124.611H68.3697V124.338H64.8558V124.637L66.0401 124.605ZM52.9609 128.622H58.7587V128.062H52.9609V128.622ZM49.9352 119.292H49.6749L49.2975 119.709C48.8371 119.365 48.2777 119.18 47.7032 119.181C47.3839 119.159 47.0635 119.205 46.7637 119.318C46.464 119.43 46.1918 119.606 45.9658 119.832C45.7316 120.071 45.5488 120.356 45.4291 120.668C45.3093 120.981 45.255 121.315 45.2696 121.649C45.2696 123.199 46.4083 123.557 47.6577 123.934L48.1522 124.084C48.8029 124.292 49.6098 124.553 49.6098 125.497C49.6051 125.706 49.5579 125.911 49.4712 126.101C49.3845 126.291 49.26 126.461 49.1053 126.601C48.9506 126.741 48.769 126.849 48.5716 126.916C48.3742 126.984 48.165 127.01 47.957 126.994C47.6396 126.991 47.3262 126.922 47.0371 126.791C46.748 126.66 46.4895 126.47 46.2782 126.233C45.9745 125.882 45.7522 125.468 45.6275 125.022H45.3086V127.196H45.6275L46.0114 126.695C46.5721 127.122 47.2587 127.351 47.9635 127.346C48.3392 127.366 48.7146 127.299 49.0601 127.15C49.4055 127.001 49.7118 126.774 49.9547 126.486C50.3675 126.003 50.5978 125.39 50.6054 124.755C50.6157 124.444 50.5634 124.135 50.4516 123.845C50.3398 123.555 50.1708 123.291 49.9547 123.068C49.4189 122.664 48.8016 122.382 48.1457 122.241C47.6307 122.127 47.1323 121.947 46.6621 121.708C46.5192 121.603 46.4024 121.467 46.3211 121.31C46.2398 121.153 46.1961 120.979 46.1936 120.803C46.193 120.616 46.231 120.432 46.3051 120.262C46.3792 120.091 46.4879 119.937 46.6242 119.811C46.7605 119.684 46.9215 119.587 47.0972 119.526C47.2728 119.465 47.4592 119.44 47.6447 119.455C47.9281 119.453 48.208 119.517 48.4621 119.643C48.7163 119.768 48.9377 119.951 49.1088 120.177C49.3489 120.533 49.5047 120.938 49.5642 121.362H49.9221L49.9352 119.292ZM40.9164 122.945C41.3084 122.703 41.6385 122.372 41.8803 121.98C42.1221 121.588 42.2689 121.144 42.3089 120.685C42.3089 119.826 41.8208 119.246 41.1181 119.246C40.9941 119.243 40.8706 119.265 40.7553 119.31C40.64 119.356 40.5352 119.425 40.4475 119.513C40.3598 119.601 40.2909 119.706 40.2451 119.821C40.1992 119.936 40.1775 120.06 40.1811 120.184C40.1773 120.295 40.1966 120.405 40.2376 120.508C40.2787 120.611 40.3406 120.704 40.4195 120.782C40.4984 120.859 40.5925 120.92 40.696 120.959C40.7994 120.999 40.9099 121.016 41.0205 121.011C41.1658 121.014 41.3093 120.978 41.4362 120.907C41.5632 120.836 41.6689 120.733 41.7428 120.607C41.7801 121.015 41.7052 121.425 41.5263 121.794C41.3474 122.162 41.0712 122.474 40.7277 122.697L40.9164 122.945ZM30.1732 119.351V119.637H30.5636C31.1102 119.637 31.1102 119.839 31.1167 120.327V126.233C31.1167 126.721 31.0517 126.884 30.5701 126.923H30.1732V127.216H32.6003V126.942H32.0342C31.6113 126.942 31.5006 126.734 31.4876 126.233V120.373L36.6282 127.313H36.895V120.542C36.895 119.819 36.9406 119.65 37.4351 119.67H37.793V119.383H35.5611V119.67H35.9059C36.5176 119.67 36.5566 119.78 36.5566 120.321V124.455L32.75 119.416L30.1732 119.351ZM23.1716 123.387C23.6661 123.387 24.1347 123.42 24.421 123.882C24.5792 124.197 24.6574 124.546 24.6487 124.898H24.948V121.734H24.6487C24.5706 122.704 24.4145 123.036 23.1651 123.075H22.8723V119.689H24.5576C24.8448 119.662 25.1338 119.715 25.3931 119.841C25.6525 119.968 25.8721 120.163 26.0282 120.405C26.174 120.716 26.2873 121.041 26.3666 121.375H26.6399L26.4772 119.37H20.2825V119.657H21.2195V126.942H20.2825V127.235H26.7895L26.9457 124.748H26.6724C26.5097 125.399 26.282 126.33 25.4621 126.701C25.0492 126.867 24.6046 126.938 24.1607 126.91H22.9243V123.361L23.1716 123.387ZM17.1591 119.637V119.351H14.3806L12.8384 124.338L11.4589 119.331H8.53723V119.618H9.48076V126.226C9.48076 126.734 9.48076 126.929 8.8691 126.936H8.53723V127.229H10.8472V126.942H10.5349C9.8842 126.942 9.8842 126.858 9.85166 126.239V119.65L12.1031 127.229H12.3634L14.6604 119.683V126.942H13.5997V127.235H17.1591V126.942H16.2676V119.637H17.1591Z" fill="black"/>
    <path d="M6.15562 111.798V111.186H0.520508V134H6.15562V133.388H3.0973V111.798H6.15562Z" fill="black"/>
    <path d="M89.7974 133.388V134H95.4325V111.186H89.7974V111.844H92.8492V133.388H89.7974Z" fill="black"/>
    </g>
    <defs>
    <clipPath id="clip0_36_292">
    <rect width="106" height="134" fill="white"/>
    </clipPath>
    </defs>
    </svg>
    